<svg width="112" height="57" viewBox="0 0 112 57" fill="none" xmlns="http://www.w3.org/2000/svg">
<path d="M23.6858 0.071458C30.032 0.071458 36.3828 0.0134405 42.7155 5.18266e-05C51.475 -0.0222626 59.2184 7.16299 56.0884 18.0747C54.9725 21.9619 52.6862 24.7691 52.6862 24.7691C52.6862 24.7691 52.3233 22.1047 49.1025 19.4181C49.1025 19.4181 46.7754 16.9456 42.6202 16.1468C40.6378 15.7674 39.0002 15.7764 32.6767 17.5972C23.8446 20.1411 24.2936 20.5249 21.4313 20.9801C11.7508 22.5153 4.43384 18.2399 1.40814 9.08649C0.727701 7.03356 0.328509 4.92262 0.0563325 2.77597C-0.193163 0.812298 0.423771 -0.00887395 2.61479 0.0268292C9.63694 0.147327 16.6591 0.071458 23.6858 0.071458Z" fill="black"/>
<path d="M42.8856 32.0882C39.7466 32.1641 36.9025 29.4819 36.83 26.3802C36.7529 23.3008 39.4836 20.5293 42.6633 20.4535C45.8023 20.3776 48.6464 23.0598 48.7189 26.1615C48.7961 29.2409 46.0608 32.0124 42.8856 32.0882Z" fill="black"/>
<path d="M44.4781 50.0469C38.8214 50.8413 37.769 50.404 35.8774 50.1183C27.2176 48.8152 18.9616 42.6475 22.5044 32.0436C24.3189 26.6168 29.4132 24.97 29.4132 24.97C29.4132 24.97 27.9979 27.1791 29.6944 30.196C29.6944 30.196 31.6178 33.7752 35.9726 33.9672C37.9913 34.0564 39.5926 34.3376 45.9161 32.5167C54.7483 29.9729 54.2992 29.5891 57.1616 29.1338C66.842 27.5941 75.2205 33.4762 77.1847 41.023C77.1847 41.023 78.1418 43.7453 77.5476 47.2933C76.5269 53.3852 69.9675 56.9957 69.9675 56.9957C69.9675 56.9957 69.8268 47.4629 59.9604 47.4629C50.5114 47.4674 49.9171 49.2793 44.4781 50.0469Z" fill="#FFB600"/>
<path d="M82.9216 13.9912C82.7492 6.72565 89.1998 0.183055 96.7028 0.00453948C104.115 -0.173976 110.833 6.15886 111.001 13.4825C111.173 20.748 104.723 27.2906 97.2199 27.4691C89.8122 27.6477 83.094 21.3148 82.9216 13.9912Z" fill="black"/>
<path d="M96.7846 29.0037C89.2816 29.1822 82.831 35.7248 83.0034 42.9904C83.1758 50.314 89.894 56.6468 97.3017 56.4683C104.805 56.2898 111.255 49.7472 111.083 42.4816C110.915 35.158 104.197 28.8252 96.7846 29.0037Z" fill="#FFB600"/>
</svg>
