<svg width="530" height="239" viewBox="0 0 530 239" fill="none" xmlns="http://www.w3.org/2000/svg">
<rect x="204" y="50" width="326" height="189" rx="10" fill="#C6C5C5"/>
<rect x="204" y="78" width="326" height="37" fill="#A8A8A8"/>
<rect x="204" y="78" width="326" height="37" fill="#A8A8A8"/>
<rect x="204" y="78" width="326" height="37" fill="#A8A8A8"/>
<rect x="204" y="78" width="326" height="37" fill="#A8A8A8"/>
<rect x="204" y="78" width="326" height="37" fill="#A8A8A8"/>
<rect x="204" y="78" width="326" height="37" fill="#A8A8A8"/>
<rect x="204" y="78" width="326" height="37" fill="#A8A8A8"/>
<rect x="204" y="123" width="326" height="5" fill="#A8A8A8"/>
<rect x="204" y="123" width="326" height="5" fill="#A8A8A8"/>
<rect x="204" y="123" width="326" height="5" fill="#A8A8A8"/>
<rect x="204" y="123" width="326" height="5" fill="#A8A8A8"/>
<rect x="204" y="123" width="326" height="5" fill="#A8A8A8"/>
<rect x="204" y="123" width="326" height="5" fill="#A8A8A8"/>
<rect x="204" y="123" width="326" height="5" fill="#A8A8A8"/>
<rect x="204" y="143" width="326" height="5" fill="#A8A8A8"/>
<rect x="204" y="143" width="326" height="5" fill="#A8A8A8"/>
<rect x="204" y="143" width="326" height="5" fill="#A8A8A8"/>
<rect x="204" y="143" width="326" height="5" fill="#A8A8A8"/>
<rect x="204" y="143" width="326" height="5" fill="#A8A8A8"/>
<rect x="204" y="143" width="326" height="5" fill="#A8A8A8"/>
<rect x="204" y="143" width="326" height="5" fill="#A8A8A8"/>
<rect x="204" y="153" width="326" height="5" fill="#A8A8A8"/>
<rect x="204" y="153" width="326" height="5" fill="#A8A8A8"/>
<rect x="204" y="153" width="326" height="5" fill="#A8A8A8"/>
<rect x="204" y="153" width="326" height="5" fill="#A8A8A8"/>
<rect x="204" y="153" width="326" height="5" fill="#A8A8A8"/>
<rect x="204" y="153" width="326" height="5" fill="#A8A8A8"/>
<rect x="204" y="153" width="326" height="5" fill="#A8A8A8"/>
<rect x="204" y="133" width="326" height="5" fill="#A8A8A8"/>
<rect x="204" y="133" width="326" height="5" fill="#A8A8A8"/>
<rect x="204" y="133" width="326" height="5" fill="#A8A8A8"/>
<rect x="204" y="133" width="326" height="5" fill="#A8A8A8"/>
<rect x="204" y="133" width="326" height="5" fill="#A8A8A8"/>
<rect x="204" y="133" width="326" height="5" fill="#A8A8A8"/>
<rect x="204" y="133" width="326" height="5" fill="#A8A8A8"/>
<rect width="358" height="203" rx="10" fill="#DCDCDC"/>
<rect width="358" height="203" rx="10" fill="#DCDCDC"/>
<rect width="358" height="203" rx="10" fill="#DCDCDC"/>
</svg>
