<svg width="1920" height="1080" viewBox="0 0 1920 1080" fill="none" xmlns="http://www.w3.org/2000/svg">
<rect width="1920" height="1080" fill="white"/>
<g clip-path="url(#clip0_40_515)">
<path d="M800.207 787C804.081 787 806.951 788.027 808.817 790.08C810.731 792.133 811.687 795.143 811.687 799.11V805.48C811.687 809.447 810.731 812.457 808.817 814.51C806.951 816.563 804.081 817.59 800.207 817.59H796.567V836H788.867V787H800.207ZM796.567 794V810.59H800.207C801.421 810.59 802.354 810.263 803.007 809.61C803.661 808.957 803.987 807.743 803.987 805.97V798.62C803.987 796.847 803.661 795.633 803.007 794.98C802.354 794.327 801.421 794 800.207 794H796.567ZM839.627 836H831.857L830.527 827.11H821.077L819.747 836H812.677L820.517 787H831.787L839.627 836ZM822.057 820.46H829.477L825.767 795.68L822.057 820.46ZM854.763 808.7H865.543V824.24C865.543 828.207 864.563 831.263 862.603 833.41C860.69 835.51 857.843 836.56 854.063 836.56C850.283 836.56 847.413 835.51 845.453 833.41C843.54 831.263 842.583 828.207 842.583 824.24V798.76C842.583 794.793 843.54 791.76 845.453 789.66C847.413 787.513 850.283 786.44 854.063 786.44C857.843 786.44 860.69 787.513 862.603 789.66C864.563 791.76 865.543 794.793 865.543 798.76V803.52H858.263V798.27C858.263 796.497 857.89 795.26 857.143 794.56C856.443 793.813 855.487 793.44 854.273 793.44C853.06 793.44 852.08 793.813 851.333 794.56C850.633 795.26 850.283 796.497 850.283 798.27V824.73C850.283 826.503 850.633 827.74 851.333 828.44C852.08 829.14 853.06 829.49 854.273 829.49C855.487 829.49 856.443 829.14 857.143 828.44C857.89 827.74 858.263 826.503 858.263 824.73V815.7H854.763V808.7ZM878.189 807.65H888.759V814.65H878.189V829H891.489V836H870.489V787H891.489V794H878.189V807.65ZM913.989 800.51V836H907.059V787H916.719L924.629 816.33V787H931.489V836H923.579L913.989 800.51ZM944.072 824.73C944.072 826.503 944.422 827.763 945.122 828.51C945.869 829.21 946.849 829.56 948.062 829.56C949.276 829.56 950.232 829.21 950.932 828.51C951.679 827.763 952.052 826.503 952.052 824.73V798.27C952.052 796.497 951.679 795.26 950.932 794.56C950.232 793.813 949.276 793.44 948.062 793.44C946.849 793.44 945.869 793.813 945.122 794.56C944.422 795.26 944.072 796.497 944.072 798.27V824.73ZM936.372 798.76C936.372 794.793 937.376 791.76 939.382 789.66C941.389 787.513 944.282 786.44 948.062 786.44C951.842 786.44 954.736 787.513 956.742 789.66C958.749 791.76 959.752 794.793 959.752 798.76V824.24C959.752 828.207 958.749 831.263 956.742 833.41C954.736 835.51 951.842 836.56 948.062 836.56C944.282 836.56 941.389 835.51 939.382 833.41C937.376 831.263 936.372 828.207 936.372 824.24V798.76ZM962.516 787H986.316V794H978.266V836H970.566V794H962.516V787ZM1008.28 808.77H1018.22V815.77H1008.28V836H1000.58V787H1020.95V794H1008.28V808.77ZM1031.71 824.73C1031.71 826.503 1032.06 827.763 1032.76 828.51C1033.51 829.21 1034.49 829.56 1035.7 829.56C1036.91 829.56 1037.87 829.21 1038.57 828.51C1039.32 827.763 1039.69 826.503 1039.69 824.73V798.27C1039.69 796.497 1039.32 795.26 1038.57 794.56C1037.87 793.813 1036.91 793.44 1035.7 793.44C1034.49 793.44 1033.51 793.813 1032.76 794.56C1032.06 795.26 1031.71 796.497 1031.71 798.27V824.73ZM1024.01 798.76C1024.01 794.793 1025.01 791.76 1027.02 789.66C1029.03 787.513 1031.92 786.44 1035.7 786.44C1039.48 786.44 1042.37 787.513 1044.38 789.66C1046.39 791.76 1047.39 794.793 1047.39 798.76V824.24C1047.39 828.207 1046.39 831.263 1044.38 833.41C1042.37 835.51 1039.48 836.56 1035.7 836.56C1031.92 836.56 1029.03 835.51 1027.02 833.41C1025.01 831.263 1024.01 828.207 1024.01 824.24V798.76ZM1059.74 787V824.8C1059.74 826.573 1060.09 827.81 1060.79 828.51C1061.54 829.21 1062.52 829.56 1063.73 829.56C1064.95 829.56 1065.9 829.21 1066.6 828.51C1067.35 827.81 1067.72 826.573 1067.72 824.8V787H1075V824.31C1075 828.277 1074.02 831.333 1072.06 833.48C1070.15 835.58 1067.3 836.63 1063.52 836.63C1059.74 836.63 1056.87 835.58 1054.91 833.48C1053 831.333 1052.04 828.277 1052.04 824.31V787H1059.74ZM1087.14 800.51V836H1080.21V787H1089.87L1097.78 816.33V787H1104.64V836H1096.73L1087.14 800.51ZM1110.16 787H1122.34C1126.21 787 1129.08 788.027 1130.95 790.08C1132.86 792.133 1133.82 795.143 1133.82 799.11V823.89C1133.82 827.857 1132.86 830.867 1130.95 832.92C1129.08 834.973 1126.21 836 1122.34 836H1110.16V787ZM1117.86 794V829H1122.2C1123.41 829 1124.37 828.65 1125.07 827.95C1125.77 827.25 1126.12 826.013 1126.12 824.24V798.76C1126.12 796.987 1125.77 795.75 1125.07 795.05C1124.37 794.35 1123.41 794 1122.2 794H1117.86Z" fill="#333333"/>
<path d="M857.569 875.2H860.649V879.64C860.649 880.773 860.369 881.647 859.809 882.26C859.262 882.86 858.449 883.16 857.369 883.16C856.289 883.16 855.469 882.86 854.909 882.26C854.362 881.647 854.089 880.773 854.089 879.64V872.36C854.089 871.227 854.362 870.36 854.909 869.76C855.469 869.147 856.289 868.84 857.369 868.84C858.449 868.84 859.262 869.147 859.809 869.76C860.369 870.36 860.649 871.227 860.649 872.36V873.72H858.569V872.22C858.569 871.713 858.462 871.36 858.249 871.16C858.049 870.947 857.775 870.84 857.429 870.84C857.082 870.84 856.802 870.947 856.589 871.16C856.389 871.36 856.289 871.713 856.289 872.22V879.78C856.289 880.287 856.389 880.64 856.589 880.84C856.802 881.04 857.082 881.14 857.429 881.14C857.775 881.14 858.049 881.04 858.249 880.84C858.462 880.64 858.569 880.287 858.569 879.78V877.2H857.569V875.2ZM864.082 879.78C864.082 880.287 864.182 880.647 864.382 880.86C864.595 881.06 864.875 881.16 865.222 881.16C865.568 881.16 865.842 881.06 866.042 880.86C866.255 880.647 866.362 880.287 866.362 879.78V872.22C866.362 871.713 866.255 871.36 866.042 871.16C865.842 870.947 865.568 870.84 865.222 870.84C864.875 870.84 864.595 870.947 864.382 871.16C864.182 871.36 864.082 871.713 864.082 872.22V879.78ZM861.882 872.36C861.882 871.227 862.168 870.36 862.742 869.76C863.315 869.147 864.142 868.84 865.222 868.84C866.302 868.84 867.128 869.147 867.702 869.76C868.275 870.36 868.562 871.227 868.562 872.36V879.64C868.562 880.773 868.275 881.647 867.702 882.26C867.128 882.86 866.302 883.16 865.222 883.16C864.142 883.16 863.315 882.86 862.742 882.26C862.168 881.647 861.882 880.773 861.882 879.64V872.36ZM876.417 869C877.564 869 878.39 869.267 878.897 869.8C879.417 870.333 879.677 871.14 879.677 872.22V872.72C879.677 873.44 879.564 874.033 879.337 874.5C879.11 874.967 878.75 875.313 878.257 875.54C878.857 875.767 879.277 876.14 879.517 876.66C879.77 877.167 879.897 877.793 879.897 878.54V879.68C879.897 880.76 879.617 881.587 879.057 882.16C878.497 882.72 877.664 883 876.557 883H873.097V869H876.417ZM875.297 876.7V881H876.557C876.93 881 877.21 880.9 877.397 880.7C877.597 880.5 877.697 880.14 877.697 879.62V878.4C877.697 877.747 877.584 877.3 877.357 877.06C877.144 876.82 876.784 876.7 876.277 876.7H875.297ZM875.297 871V874.7H876.157C876.57 874.7 876.89 874.593 877.117 874.38C877.357 874.167 877.477 873.78 877.477 873.22V872.44C877.477 871.933 877.384 871.567 877.197 871.34C877.024 871.113 876.744 871 876.357 871H875.297ZM888.342 883H886.122L885.742 880.46H883.042L882.662 883H880.642L882.882 869H886.102L888.342 883ZM883.322 878.56H885.442L884.382 871.48L883.322 878.56ZM895.727 877.78V879.64C895.727 880.773 895.447 881.647 894.887 882.26C894.34 882.86 893.527 883.16 892.447 883.16C891.367 883.16 890.547 882.86 889.987 882.26C889.44 881.647 889.167 880.773 889.167 879.64V872.36C889.167 871.227 889.44 870.36 889.987 869.76C890.547 869.147 891.367 868.84 892.447 868.84C893.527 868.84 894.34 869.147 894.887 869.76C895.447 870.36 895.727 871.227 895.727 872.36V873.72H893.647V872.22C893.647 871.713 893.54 871.36 893.327 871.16C893.127 870.947 892.854 870.84 892.507 870.84C892.16 870.84 891.88 870.947 891.667 871.16C891.467 871.36 891.367 871.713 891.367 872.22V879.78C891.367 880.287 891.467 880.64 891.667 880.84C891.88 881.04 892.16 881.14 892.507 881.14C892.854 881.14 893.127 881.04 893.327 880.84C893.54 880.64 893.647 880.287 893.647 879.78V877.78H895.727ZM899.942 877.42L899.262 878.7V883H897.062V869H899.262V875.1L902.142 869H904.342L901.282 875.24L904.342 883H902.082L899.942 877.42ZM915.568 883H913.348L912.968 880.46H910.268L909.888 883H907.868L910.108 869H913.328L915.568 883ZM910.548 878.56H912.668L911.608 871.48L910.548 878.56ZM918.553 872.86V883H916.573V869H919.333L921.593 877.38V869H923.553V883H921.293L918.553 872.86ZM925.128 869H928.608C929.715 869 930.535 869.293 931.068 869.88C931.615 870.467 931.888 871.327 931.888 872.46V879.54C931.888 880.673 931.615 881.533 931.068 882.12C930.535 882.707 929.715 883 928.608 883H925.128V869ZM927.328 871V881H928.568C928.915 881 929.188 880.9 929.388 880.7C929.588 880.5 929.688 880.147 929.688 879.64V872.36C929.688 871.853 929.588 871.5 929.388 871.3C929.188 871.1 928.915 871 928.568 871H927.328ZM935.758 869H942.558V871H940.258V883H938.058V871H935.758V869ZM948.127 883C948.1 882.907 948.073 882.82 948.047 882.74C948.02 882.66 947.993 882.56 947.967 882.44C947.953 882.32 947.94 882.167 947.927 881.98C947.927 881.793 947.927 881.56 947.927 881.28V879.08C947.927 878.427 947.813 877.967 947.587 877.7C947.36 877.433 946.993 877.3 946.487 877.3H945.727V883H943.527V869H946.847C947.993 869 948.82 869.267 949.327 869.8C949.847 870.333 950.107 871.14 950.107 872.22V873.32C950.107 874.76 949.627 875.707 948.667 876.16C949.227 876.387 949.607 876.76 949.807 877.28C950.02 877.787 950.127 878.407 950.127 879.14V881.3C950.127 881.647 950.14 881.953 950.167 882.22C950.193 882.473 950.26 882.733 950.367 883H948.127ZM945.727 871V875.3H946.587C947 875.3 947.32 875.193 947.547 874.98C947.787 874.767 947.907 874.38 947.907 873.82V872.44C947.907 871.933 947.813 871.567 947.627 871.34C947.453 871.113 947.173 871 946.787 871H945.727ZM953.438 878.36L950.658 869H952.958L954.638 875.38L956.318 869H958.418L955.638 878.36V883H953.438V878.36ZM969.533 883H967.313L966.933 880.46H964.233L963.853 883H961.833L964.073 869H967.293L969.533 883ZM964.513 878.56H966.633L965.573 871.48L964.513 878.56ZM973.663 869H977.143C978.25 869 979.07 869.293 979.603 869.88C980.15 870.467 980.423 871.327 980.423 872.46V879.54C980.423 880.673 980.15 881.533 979.603 882.12C979.07 882.707 978.25 883 977.143 883H973.663V869ZM975.863 871V881H977.103C977.45 881 977.723 880.9 977.923 880.7C978.123 880.5 978.223 880.147 978.223 879.64V872.36C978.223 871.853 978.123 871.5 977.923 871.3C977.723 871.1 977.45 871 977.103 871H975.863ZM981.827 869H984.027V883H981.827V869ZM987.836 875.22H990.676V877.22H987.836V883H985.636V869H991.456V871H987.836V875.22ZM994.711 875.22H997.551V877.22H994.711V883H992.511V869H998.331V871H994.711V875.22ZM1001.59 874.9H1004.61V876.9H1001.59V881H1005.39V883H999.386V869H1005.39V871H1001.59V874.9ZM1011.35 883C1011.32 882.907 1011.3 882.82 1011.27 882.74C1011.24 882.66 1011.22 882.56 1011.19 882.44C1011.18 882.32 1011.16 882.167 1011.15 881.98C1011.15 881.793 1011.15 881.56 1011.15 881.28V879.08C1011.15 878.427 1011.04 877.967 1010.81 877.7C1010.58 877.433 1010.22 877.3 1009.71 877.3H1008.95V883H1006.75V869H1010.07C1011.22 869 1012.04 869.267 1012.55 869.8C1013.07 870.333 1013.33 871.14 1013.33 872.22V873.32C1013.33 874.76 1012.85 875.707 1011.89 876.16C1012.45 876.387 1012.83 876.76 1013.03 877.28C1013.24 877.787 1013.35 878.407 1013.35 879.14V881.3C1013.35 881.647 1013.36 881.953 1013.39 882.22C1013.42 882.473 1013.48 882.733 1013.59 883H1011.35ZM1008.95 871V875.3H1009.81C1010.22 875.3 1010.54 875.193 1010.77 874.98C1011.01 874.767 1011.13 874.38 1011.13 873.82V872.44C1011.13 871.933 1011.04 871.567 1010.85 871.34C1010.68 871.113 1010.4 871 1010.01 871H1008.95ZM1017 874.9H1020.02V876.9H1017V881H1020.8V883H1014.8V869H1020.8V871H1017V874.9ZM1024.12 872.86V883H1022.14V869H1024.9L1027.16 877.38V869H1029.12V883H1026.86L1024.12 872.86ZM1030.05 869H1036.85V871H1034.55V883H1032.35V871H1030.05V869ZM1040.93 869H1043.13V881H1046.75V883H1040.93V869ZM1047.71 869H1049.91V883H1047.71V869ZM1053.47 872.86V883H1051.49V869H1054.25L1056.51 877.38V869H1058.47V883H1056.21L1053.47 872.86ZM1062.93 877.42L1062.25 878.7V883H1060.05V869H1062.25V875.1L1065.13 869H1067.33L1064.27 875.24L1067.33 883H1065.07L1062.93 877.42Z" fill="#59C3FB"/>
<path d="M623 566.692L718.638 436.881H772.744V566.692H790.916V597.752H772.744V641.905H718.618V597.752H623V566.692ZM718.618 566.692V502.664L673.929 566.692H718.618Z" fill="#75D1F9"/>
<path d="M1129.01 566.692L1224.63 436.881H1278.74V566.692H1298V597.752H1278.74V641.905H1224.63V597.752H1129.01V566.692ZM1224.63 566.692V502.664L1179.94 566.692H1224.63Z" fill="#75D1F9"/>
<path d="M962.721 745.418C1066.98 744.012 1150.35 658.261 1148.94 553.889C1147.53 449.516 1061.87 366.046 957.615 367.453C853.357 368.86 769.983 454.61 771.393 558.983C772.803 663.355 858.463 746.825 962.721 745.418Z" fill="#75D1F9"/>
<path d="M1048.02 604.283C1081.57 579.135 1114.74 587.907 1132.79 596.29C1134.65 583.092 1149.23 423.26 961.796 423.26C961.757 423.26 961.737 423.26 961.698 423.26C961.659 423.26 961.64 423.26 961.601 423.26C776.351 423.26 788.732 583.092 790.584 596.29C808.639 587.907 841.805 579.135 875.361 604.283C909.112 629.586 908.176 667.307 904.082 688.965C922.663 692.299 942.181 693.819 961.601 693.917C961.64 693.917 961.659 693.917 961.698 693.917C961.737 693.917 961.757 693.917 961.796 693.917C981.196 693.819 1000.73 692.299 1019.31 688.965C1015.22 667.307 1014.26 629.566 1048.02 604.283ZM961.952 588.648C958.091 588.648 951.715 582.975 950.994 577.77C950.038 571.63 958.091 571.142 962.595 570.909C981.742 570.87 968.269 588.648 961.952 588.648Z" fill="white"/>
<path d="M962.574 570.909C958.07 571.143 950.037 571.611 950.973 577.771C951.675 582.976 958.07 588.648 961.931 588.648C968.268 588.648 981.741 570.87 962.574 570.909Z" fill="#333333"/>
<path d="M875.361 604.283C841.805 579.135 808.639 587.908 790.584 596.29C798.305 651.244 846.66 678.692 904.081 688.965C908.176 667.307 909.112 629.567 875.361 604.283Z" fill="white"/>
<path d="M1132.79 596.29C1114.74 587.908 1081.57 579.135 1048.02 604.283C1014.26 629.586 1015.2 667.307 1019.29 688.965C1076.72 678.672 1125.09 651.225 1132.79 596.29Z" fill="white"/>
<path d="M836.152 439.83C824.453 445.015 823.869 461.176 834.456 467.921L857.269 450.669C852.745 438.173 841.982 437.335 836.152 439.83Z" fill="#FFC1C2"/>
<path d="M822.815 411.856C789.376 426.671 787.699 472.872 817.98 492.132L883.181 442.812C870.254 407.138 839.486 404.76 822.815 411.856ZM834.455 467.901C823.868 461.156 824.453 444.996 836.152 439.81C841.982 437.334 852.745 438.153 857.268 450.629L834.455 467.901Z" fill="#333333"/>
<path d="M1087.38 439.83C1081.55 437.354 1070.79 438.173 1066.27 450.649L1089.08 467.901C1099.67 461.176 1099.08 445.015 1087.38 439.83Z" fill="#FFC1C2"/>
<path d="M1100.72 411.856C1084.05 404.76 1053.28 407.138 1040.37 442.793L1105.56 492.113C1135.84 472.873 1134.14 426.691 1100.72 411.856ZM1089.08 467.902L1066.27 450.649C1070.79 438.173 1081.55 437.335 1087.38 439.83C1099.08 445.016 1099.67 461.176 1089.08 467.902Z" fill="#333333"/>
<path d="M932.569 653.252C935.592 663.915 947.485 671.888 961.699 671.888C971.292 671.888 979.813 668.263 985.272 662.648C971.214 651.049 947.602 646.644 932.569 653.252Z" fill="#FF7979"/>
<path d="M1132.79 596.29C1114.74 587.908 1081.57 579.135 1048.02 604.283C1014.26 629.586 1015.2 667.307 1019.29 688.965C1076.72 678.672 1125.09 651.225 1132.79 596.29Z" fill="#FFDBDB"/>
<path d="M991.569 647.93C991.569 634.693 978.194 623.972 961.698 623.972C945.203 623.972 931.827 634.693 931.827 647.93C931.827 649.762 932.1 651.536 932.568 653.252C947.621 646.643 971.233 651.049 985.271 662.648C989.21 658.593 991.569 653.486 991.569 647.93Z" fill="#333333"/>
<path d="M875.361 604.283C841.805 579.135 808.639 587.908 790.584 596.29C798.305 651.244 846.66 678.692 904.081 688.965C908.176 667.307 909.112 629.567 875.361 604.283Z" fill="#FFDBDB"/>
<path d="M936.312 523.811C947.816 539.913 935.942 568.102 909.795 586.758C883.648 605.413 853.134 607.499 841.63 591.397C830.146 575.295 842.001 547.106 868.167 528.45C894.314 509.795 924.828 507.709 936.312 523.811Z" fill="#333333"/>
<path d="M987.066 523.811C975.562 539.913 987.436 568.102 1013.58 586.758C1039.73 605.413 1070.24 607.499 1081.75 591.397C1093.25 575.295 1081.38 547.106 1055.23 528.45C1029.06 509.795 998.55 507.709 987.066 523.811Z" fill="#333333"/>
<path d="M1019.02 545.391C1012.84 545.391 1007.83 550.401 1007.83 556.6C1007.83 562.779 1012.84 567.809 1019.02 567.809C1025.2 567.809 1030.23 562.799 1030.23 556.6C1030.23 550.42 1025.2 545.391 1019.02 545.391ZM1019.02 559.563C1017.38 559.563 1016.06 558.237 1016.06 556.6C1016.06 554.962 1017.38 553.637 1019.02 553.637C1020.66 553.637 1021.99 554.962 1021.99 556.6C1021.99 558.237 1020.66 559.563 1019.02 559.563Z" fill="white"/>
<path d="M904.355 545.391C898.174 545.391 893.144 550.401 893.144 556.6C893.144 562.779 898.155 567.809 904.355 567.809C910.536 567.809 915.547 562.799 915.547 556.6C915.566 550.42 910.555 545.391 904.355 545.391ZM904.355 559.563C902.717 559.563 901.391 558.237 901.391 556.6C901.391 554.962 902.717 553.637 904.355 553.637C905.993 553.637 907.319 554.962 907.319 556.6C907.319 558.237 905.993 559.563 904.355 559.563Z" fill="white"/>
<path d="M1095.42 418.191C1108.42 421.759 1118.19 434.586 1118.17 447.588C1118.17 454.762 1111.42 458.33 1102.84 438.777C1096.43 424.157 1079.51 424.41 1081.61 420.414C1083.29 417.197 1090.6 416.866 1095.42 418.191Z" fill="#4D4D4D"/>
<path d="M828.118 418.191C815.113 421.759 805.344 434.586 805.344 447.588C805.344 454.762 812.091 458.33 820.67 438.777C827.085 424.157 844.009 424.41 841.903 420.414C840.226 417.197 832.914 416.866 828.118 418.191Z" fill="#4D4D4D"/>
<path d="M961.074 408.639C970.433 329.98 1061.35 346.433 1130.73 345.01C1186.8 343.86 1216.75 337.895 1212.85 277.522C1211.49 256.234 1230.63 181.123 1117.53 191.143C1004.42 201.163 885.168 188.082 813.143 190.246C741.117 192.41 715.068 207.44 713.703 272.531C712.338 337.622 722.204 349.65 827.63 343.88C964.837 336.374 961.074 408.639 961.074 408.639Z" fill="#333333"/>
<path d="M851.525 259.1C851.525 264.233 851.059 269.133 850.125 273.8C849.259 278.4 847.592 282.467 845.125 286C842.659 289.467 839.292 292.267 835.025 294.4C830.759 296.467 825.225 297.5 818.425 297.5C811.625 297.5 806.092 296.467 801.825 294.4C797.559 292.267 794.192 289.433 791.725 285.9C789.325 282.367 787.659 278.3 786.725 273.7C785.859 269.033 785.425 264.167 785.425 259.1C785.425 254.5 785.859 250 786.725 245.6C787.659 241.2 789.325 237.267 791.725 233.8C794.192 230.333 797.559 227.567 801.825 225.5C806.159 223.367 811.692 222.3 818.425 222.3C825.159 222.3 830.659 223.367 834.925 225.5C839.259 227.567 842.625 230.333 845.025 233.8C847.492 237.267 849.192 241.2 850.125 245.6C851.059 250 851.525 254.5 851.525 259.1ZM833.125 259.1C833.125 255.167 832.859 251.833 832.325 249.1C831.859 246.3 831.025 244.033 829.825 242.3C828.692 240.567 827.192 239.3 825.325 238.5C823.459 237.7 821.159 237.3 818.425 237.3C815.692 237.3 813.392 237.7 811.525 238.5C809.659 239.233 808.159 240.467 807.025 242.2C805.892 243.933 805.092 246.2 804.625 249C804.159 251.733 803.925 255.1 803.925 259.1C803.925 263.567 804.159 267.3 804.625 270.3C805.159 273.3 805.992 275.733 807.125 277.6C808.259 279.4 809.725 280.7 811.525 281.5C813.392 282.233 815.692 282.6 818.425 282.6C821.159 282.6 823.459 282.2 825.325 281.4C827.192 280.6 828.692 279.3 829.825 277.5C831.025 275.633 831.859 273.2 832.325 270.2C832.859 267.2 833.125 263.5 833.125 259.1ZM914.763 269C914.763 273.2 914.229 277.033 913.163 280.5C912.163 283.967 910.529 286.967 908.263 289.5C906.063 292.033 903.163 294 899.563 295.4C895.963 296.8 891.563 297.5 886.363 297.5C881.163 297.5 876.763 296.8 873.163 295.4C869.629 294 866.729 292.067 864.463 289.6C862.196 287.067 860.563 284.067 859.563 280.6C858.563 277.133 858.063 273.3 858.063 269.1C858.063 264.9 858.563 261.067 859.563 257.6C860.563 254.133 862.196 251.167 864.463 248.7C866.729 246.167 869.629 244.2 873.163 242.8C876.763 241.4 881.163 240.7 886.363 240.7C891.563 240.7 895.963 241.4 899.563 242.8C903.163 244.133 906.063 246.067 908.263 248.6C910.529 251.067 912.163 254.033 913.163 257.5C914.229 260.967 914.763 264.8 914.763 269ZM896.463 269C896.463 265.933 896.263 263.433 895.863 261.5C895.463 259.567 894.829 258.033 893.963 256.9C893.096 255.767 892.029 255 890.763 254.6C889.496 254.133 888.029 253.9 886.363 253.9C884.629 253.9 883.129 254.133 881.863 254.6C880.663 255 879.629 255.767 878.763 256.9C877.896 258.033 877.263 259.6 876.863 261.6C876.463 263.533 876.263 266.033 876.263 269.1C876.263 272.167 876.463 274.7 876.863 276.7C877.263 278.633 877.896 280.2 878.763 281.4C879.629 282.533 880.663 283.333 881.863 283.8C883.129 284.2 884.629 284.4 886.363 284.4C888.029 284.4 889.496 284.167 890.763 283.7C892.029 283.233 893.096 282.433 893.963 281.3C894.829 280.1 895.463 278.533 895.863 276.6C896.263 274.6 896.463 272.067 896.463 269ZM977.067 269C977.067 273.2 976.534 277.033 975.467 280.5C974.467 283.967 972.834 286.967 970.567 289.5C968.367 292.033 965.467 294 961.867 295.4C958.267 296.8 953.867 297.5 948.667 297.5C943.467 297.5 939.067 296.8 935.467 295.4C931.934 294 929.034 292.067 926.767 289.6C924.501 287.067 922.867 284.067 921.867 280.6C920.867 277.133 920.367 273.3 920.367 269.1C920.367 264.9 920.867 261.067 921.867 257.6C922.867 254.133 924.501 251.167 926.767 248.7C929.034 246.167 931.934 244.2 935.467 242.8C939.067 241.4 943.467 240.7 948.667 240.7C953.867 240.7 958.267 241.4 961.867 242.8C965.467 244.133 968.367 246.067 970.567 248.6C972.834 251.067 974.467 254.033 975.467 257.5C976.534 260.967 977.067 264.8 977.067 269ZM958.767 269C958.767 265.933 958.567 263.433 958.167 261.5C957.767 259.567 957.134 258.033 956.267 256.9C955.401 255.767 954.334 255 953.067 254.6C951.801 254.133 950.334 253.9 948.667 253.9C946.934 253.9 945.434 254.133 944.167 254.6C942.967 255 941.934 255.767 941.067 256.9C940.201 258.033 939.567 259.6 939.167 261.6C938.767 263.533 938.567 266.033 938.567 269.1C938.567 272.167 938.767 274.7 939.167 276.7C939.567 278.633 940.201 280.2 941.067 281.4C941.934 282.533 942.967 283.333 944.167 283.8C945.434 284.2 946.934 284.4 948.667 284.4C950.334 284.4 951.801 284.167 953.067 283.7C954.334 283.233 955.401 282.433 956.267 281.3C957.134 280.1 957.767 278.533 958.167 276.6C958.567 274.6 958.767 272.067 958.767 269ZM1039.67 268.8C1039.67 273.2 1039.11 277.167 1037.97 280.7C1036.84 284.233 1035.14 287.267 1032.87 289.8C1030.61 292.267 1027.71 294.167 1024.17 295.5C1020.71 296.833 1016.64 297.5 1011.97 297.5C1010.57 297.5 1009.01 297.333 1007.27 297C1005.61 296.733 1003.94 296.2 1002.27 295.4C1002.67 296.333 1002.94 297 1003.07 297.4C1003.27 297.8 1003.37 298.267 1003.37 298.8V320.3H985.272V242.3H998.772L1000.27 246.1C1002.34 244.233 1004.57 242.867 1006.97 242C1009.37 241.133 1011.84 240.7 1014.37 240.7C1018.04 240.7 1021.41 241.267 1024.47 242.4C1027.61 243.533 1030.31 245.267 1032.57 247.6C1034.84 249.933 1036.57 252.867 1037.77 256.4C1039.04 259.867 1039.67 264 1039.67 268.8ZM1021.57 268.8C1021.57 263.467 1020.77 259.467 1019.17 256.8C1017.64 254.133 1015.04 252.8 1011.37 252.8C1010.24 252.8 1009.01 253.033 1007.67 253.5C1006.41 253.9 1004.97 254.567 1003.37 255.5V283.8C1004.91 284.533 1006.27 285 1007.47 285.2C1008.67 285.333 1009.87 285.4 1011.07 285.4C1014.81 285.4 1017.47 284.067 1019.07 281.4C1020.74 278.733 1021.57 274.533 1021.57 268.8ZM1094.87 278.7C1094.87 281.9 1094.24 284.667 1092.97 287C1091.77 289.333 1090.07 291.3 1087.87 292.9C1085.67 294.433 1083.04 295.567 1079.97 296.3C1076.9 297.1 1073.54 297.5 1069.87 297.5C1063.07 297.5 1057.67 296.3 1053.67 293.9C1049.67 291.5 1046.74 288.4 1044.87 284.6L1057.57 279.8C1058.97 281.933 1060.64 283.433 1062.57 284.3C1064.57 285.167 1067 285.6 1069.87 285.6C1070.8 285.6 1071.74 285.533 1072.67 285.4C1073.6 285.267 1074.44 285.033 1075.17 284.7C1075.9 284.367 1076.5 283.867 1076.97 283.2C1077.44 282.533 1077.67 281.7 1077.67 280.7C1077.67 279.633 1077.44 278.733 1076.97 278C1076.5 277.2 1075.4 276.633 1073.67 276.3L1060.87 274.2C1058.8 273.867 1056.87 273.3 1055.07 272.5C1053.27 271.7 1051.67 270.633 1050.27 269.3C1048.94 267.9 1047.87 266.2 1047.07 264.2C1046.34 262.2 1045.97 259.867 1045.97 257.2C1045.97 254.2 1046.6 251.667 1047.87 249.6C1049.2 247.467 1050.97 245.767 1053.17 244.5C1055.37 243.167 1057.94 242.2 1060.87 241.6C1063.8 241 1066.9 240.7 1070.17 240.7C1075.84 240.7 1080.57 241.633 1084.37 243.5C1088.17 245.367 1091.24 248 1093.57 251.4L1081.77 257.6C1080.44 256.067 1078.84 254.867 1076.97 254C1075.1 253.133 1072.84 252.7 1070.17 252.7C1068.37 252.7 1066.74 252.967 1065.27 253.5C1063.87 254.033 1063.17 255.167 1063.17 256.9C1063.17 258.967 1064.27 260.2 1066.47 260.6L1077.77 262.5C1080.37 262.9 1082.7 263.5 1084.77 264.3C1086.9 265.033 1088.7 266.033 1090.17 267.3C1091.7 268.567 1092.87 270.133 1093.67 272C1094.47 273.867 1094.87 276.1 1094.87 278.7ZM1118.25 273.3H1104.95L1102.65 255.1V218.1H1120.35V255.2L1118.25 273.3ZM1120.45 294.9C1120.45 295.633 1120.12 296 1119.45 296H1103.65C1102.99 296 1102.65 295.633 1102.65 294.9V279.4C1102.65 278.867 1102.72 278.533 1102.85 278.4C1102.99 278.267 1103.25 278.2 1103.65 278.2H1119.45C1119.85 278.2 1120.12 278.267 1120.25 278.4C1120.39 278.533 1120.45 278.867 1120.45 279.4V294.9Z" fill="white"/>
</g>
<defs>
<clipPath id="clip0_40_515">
<rect width="675" height="700" fill="white" transform="translate(623 190)"/>
</clipPath>
</defs>
</svg>
