<svg width="27" height="35" viewBox="0 0 27 35" fill="none" xmlns="http://www.w3.org/2000/svg">
<path d="M-0.000732422 14.072C-0.000732422 6.70859 5.99883 0.740234 13.3997 0.740234C20.8016 0.740234 26.8011 6.70859 26.8011 14.072C26.8011 15.3898 26.6061 16.6618 26.2484 17.8669C24.3405 25.5433 13.3399 34.1296 13.3399 34.1296C13.3399 34.1296 0.911788 24.4352 0.180723 16.4353L0.213238 16.4291C0.0747865 15.6653 -0.000732422 14.8775 -0.000732422 14.072ZM13.2172 17.0416C16.2453 17.0416 18.6996 14.5989 18.6996 11.5866C18.6996 8.57422 16.2453 6.13262 13.2172 6.13262C10.1901 6.13262 7.73576 8.57422 7.73576 11.5866C7.73576 14.5989 10.1901 17.0416 13.2172 17.0416Z" fill="black"/>
</svg>
