<svg width="1920" height="1080" viewBox="0 0 1920 1080" fill="none" xmlns="http://www.w3.org/2000/svg">
<g clip-path="url(#clip0_115_390)">
<rect width="1920" height="1080" fill="white"/>
<path d="M847.264 767.738L847.54 767.373C892.219 801.118 891.216 851.324 885.861 880.36C910.289 884.74 935.936 886.74 961.461 886.87H961.461H961.461H961.462H961.462H961.462H961.462H961.463H961.463H961.463H961.464H961.464H961.464H961.464H961.465H961.465H961.465H961.466H961.466H961.466H961.466H961.467H961.467H961.467H961.468H961.468H961.468H961.468H961.469H961.469H961.469H961.47H961.47H961.47H961.47H961.471H961.471H961.471H961.472H961.472H961.472H961.472H961.473H961.473H961.473H961.473H961.474H961.474H961.474H961.475H961.475H961.475H961.475H961.476H961.476H961.476H961.476H961.477H961.477H961.477H961.478H961.478H961.478H961.478H961.479H961.479H961.479H961.479H961.48H961.48H961.48H961.48H961.481H961.481H961.481H961.482H961.482H961.482H961.482H961.483H961.483H961.483H961.483H961.484H961.484H961.484H961.484H961.485H961.485H961.485H961.485H961.486H961.486H961.486H961.486H961.487H961.487H961.487H961.487H961.488H961.488H961.488H961.488H961.489H961.489H961.489H961.489H961.49H961.49H961.49H961.49H961.491H961.491H961.491H961.491H961.492H961.492H961.492H961.492H961.493H961.493H961.493H961.493H961.494H961.494H961.494H961.494H961.495H961.495H961.495H961.495H961.496H961.496H961.496H961.496H961.497H961.497H961.497H961.497H961.498H961.498H961.498H961.498H961.498H961.499H961.499H961.499H961.499H961.5H961.5H961.5H961.5H961.501H961.501H961.501H961.501H961.502H961.502H961.502H961.502H961.503H961.503H961.503H961.503H961.503H961.504H961.504H961.504H961.504H961.505H961.505H961.505H961.505H961.506H961.506H961.506H961.506H961.506H961.507H961.507H961.507H961.507H961.508H961.508H961.508H961.508H961.509H961.509H961.509H961.509H961.51H961.51H961.51H961.51H961.51H961.511H961.511H961.511H961.511H961.512H961.512H961.512H961.512H961.512H961.513H961.513H961.513H961.513H961.514H961.514H961.514H961.514H961.515H961.515H961.515H961.515H961.516H961.516H961.516H961.516H961.517H961.517H961.517H961.517H961.518H961.518H961.518H961.518H961.519H961.519H961.519H961.519H961.52H961.52H961.52H961.52H961.521H961.521H961.521H961.521H961.522H961.522H961.522H961.523H961.523H961.523H961.523H961.523H961.524H961.524H961.524H961.525H961.525H961.525H961.525H961.525H961.526H961.526H961.526H961.527H961.527H961.527H961.527H961.528H961.528H961.528H961.528H961.528H961.529H961.529H961.529H961.53H961.53H961.53H961.53H961.53H961.531H961.531H961.531H961.531H961.532H961.532H961.532H961.532H961.533H961.533H961.533H961.533H961.533H961.534H961.534H961.534H961.534H961.535H961.535H961.535H961.535H961.536H961.536H961.536H961.536H961.536H961.537H961.537H961.537H961.537H961.538H961.538H961.538H961.538H961.539H961.539H961.539H961.539H961.539H961.54H961.54H961.54H961.54H961.541H961.541H961.541H961.541H961.542H961.542H961.542H961.542H961.543H961.543H961.543H961.543H961.543H961.544H961.544H961.544H961.544H961.545H961.545H961.545H961.545H961.546H961.546H961.546H961.546H961.547H961.547H961.547H961.547H961.548H961.548H961.548H961.548H961.548H961.549H961.549H961.549H961.549H961.55H961.55H961.55H961.55H961.551H961.551H961.551H961.551H961.552H961.552H961.552H961.552H961.553H961.553H961.553H961.553H961.554H961.554H961.554H961.554H961.555H961.555H961.555H961.555H961.556H961.556H961.556H961.556H961.557H961.557H961.557H961.557H961.558H961.558H961.558H961.558H961.559H961.559H961.559H961.559H961.56H961.56H961.56H961.56H961.561H961.561H961.561H961.561H961.562H961.562H961.562H961.562H961.563H961.563H961.563H961.564H961.564H961.564H961.564H961.565H961.565H961.565H961.565H961.566H961.566H961.566H961.566H961.567H961.567H961.567H961.567H961.568H961.568H961.568H961.569H961.569H961.569H961.569H961.57H961.57H961.57H961.57H961.571H961.571H961.571H961.572H961.572H961.572H961.572H961.573H961.573H961.573H961.573H961.574H961.574H961.574H961.575H961.575H961.575H961.575H961.576H961.576H961.576H961.577H961.577H961.577H961.577H961.578H961.578H961.578H961.579H961.579H961.579H961.579H961.58H961.58H961.58H961.581H961.581H961.581H961.581H961.582H961.582H961.582H961.583H961.583H961.583H961.583H961.584H961.584H961.584H961.585H961.585H961.585H961.586H961.586H961.586H961.586H961.587H961.587L847.264 767.738ZM847.264 767.738L847.54 767.373C803.267 733.948 759.493 745.234 735.363 756.367M847.264 767.738L735.363 756.367M735.363 756.367C734.033 745.666 730.122 689.417 755.731 635.282C768.828 607.597 789.643 580.469 822.476 560.259C855.309 540.048 900.193 526.736 961.458 526.736H961.458H961.459H961.459H961.459H961.459H961.46H961.46H961.46H961.461H961.461H961.461H961.462H961.462H961.462H961.462H961.463H961.463H961.463H961.464H961.464H961.464H961.464H961.465H961.465H961.465H961.466H961.466H961.466H961.466H961.467H961.467H961.467H961.468H961.468H961.468H961.468H961.469H961.469H961.469H961.47H961.47H961.47H961.47H961.471H961.471H961.471H961.472H961.472H961.472H961.472H961.473H961.473H961.473H961.473H961.474H961.474H961.474H961.475H961.475H961.475H961.475H961.476H961.476H961.476H961.476H961.477H961.477H961.477H961.478H961.478H961.478H961.478H961.479H961.479H961.479H961.479H961.48H961.48H961.48H961.48H961.481H961.481H961.481H961.482H961.482H961.482H961.482H961.483H961.483H961.483H961.483H961.484H961.484H961.484H961.484H961.485H961.485H961.485H961.485H961.486H961.486H961.486H961.486H961.487H961.487H961.487H961.487H961.488H961.488H961.488H961.488H961.489H961.489H961.489H961.489H961.49H961.49H961.49H961.49H961.491H961.491H961.491H961.491H961.492H961.492H961.492H961.492H961.493H961.493H961.493H961.493H961.494H961.494H961.494H961.494H961.495H961.495H961.495H961.495H961.496H961.496H961.496H961.496H961.497H961.497H961.497H961.497H961.498H961.498H961.498H961.498H961.498H961.499H961.499H961.499H961.499H961.5H961.5H961.5H961.5H961.501H961.501H961.501H961.501H961.502H961.502H961.502H961.502H961.503H961.503H961.503H961.503H961.503H961.504H961.504H961.504H961.504H961.505H961.505H961.505H961.505H961.506H961.506H961.506H961.506H961.506H961.507H961.507H961.507H961.507H961.508H961.508H961.508H961.508H961.509H961.509H961.509H961.509H961.51H961.51H961.51H961.51H961.51H961.511H961.511H961.511H961.511H961.512H961.512H961.512H961.512H961.512H961.513H961.513H961.513H961.513H961.514H961.514H961.514H961.514H961.515H961.515H961.515H961.515H961.515H961.516H961.516H961.516H961.516H961.517H961.517H961.517H961.517H961.518H961.518H961.518H961.518H961.518H961.519H961.519H961.519H961.519H961.52H961.52H961.52H961.52H961.52H961.521H961.521H961.521H961.521H961.522H961.522H961.522H961.522H961.523H961.523H961.523H961.523H961.523H961.524H961.524H961.524H961.524H961.525H961.525H961.525H961.525H961.525H961.526H961.526H961.526H961.526H961.527H961.527H961.527H961.527H961.528H961.528H961.528H961.528H961.528H961.529H961.529H961.529H961.529H961.53H961.53H961.53H961.53H961.53H961.531H961.531H961.531H961.531H961.532H961.532H961.532H961.532H961.533H961.533H961.533H961.533H961.533H961.534H961.534H961.534H961.534H961.535H961.535H961.535H961.535H961.536H961.536H961.536H961.536H961.536H961.537H961.537H961.537H961.537H961.538H961.538H961.538H961.538H961.539H961.539H961.539H961.539H961.539H961.54H961.54H961.54H961.54H961.541H961.541H961.541H961.541H961.542H961.542H961.542H961.542H961.543H961.543H961.543H961.543H961.543H961.544H961.544H961.544H961.544H961.545H961.545H961.545H961.545H961.546H961.546H961.546H961.546H961.547H961.547H961.547H961.547H961.548H961.548H961.548H961.548H961.548H961.549H961.549H961.549H961.549H961.55H961.55H961.55H961.55H961.551H961.551H961.551H961.551H961.552H961.552H961.552H961.552H961.553H961.553H961.553H961.553H961.554H961.554H961.554H961.554H961.555H961.555H961.555H961.555H961.556H961.556H961.556H961.556H961.557H961.557H961.557H961.557H961.558H961.558H961.558H961.558H961.559H961.559H961.559H961.559H961.56H961.56H961.56H961.56H961.561H961.561H961.561H961.561H961.562H961.562H961.562H961.562H961.563H961.563H961.563H961.564H961.564H961.564H961.564H961.565H961.565H961.565H961.565H961.566H961.566H961.566H961.566H961.567H961.567H961.567H961.567H961.568H961.568H961.568H961.569H961.569H961.569H961.569H961.57H961.57H961.57H961.57H961.571H961.571H961.571H961.572H961.572H961.572H961.572H961.573H961.573H961.573H961.573H961.574H961.574H961.574H961.575H961.575H961.575H961.575H961.576H961.576H961.576H961.577H961.577H961.577H961.577H961.578H961.578H961.578H961.579H961.579H961.579H961.579H961.58H961.58H961.58H961.581H961.581H961.581H961.581H961.582H961.582H961.582H961.583H961.583H961.583H961.583H961.584H961.584H961.584H961.585H961.585H961.585H961.586H961.586H961.586H961.586H961.587H961.587H961.587H961.588H961.588H961.588H961.589H961.589H961.589H961.589H961.59H961.59H961.59H961.591H961.591H961.591H961.592H961.592H961.592H961.592H961.593H961.593H961.593H961.594H961.594H961.594H961.594H961.595H961.595H961.595H961.596H961.596H961.596H961.596H961.597H961.597H961.597H961.598H961.598H961.598H961.598H961.599H961.599H961.599H961.6H961.6H961.6H961.6H961.601H961.601H961.601H961.602H961.602H961.602H961.602H961.603H961.603H961.603H961.603H961.604H961.604H961.604H961.605H961.605H961.605H961.605H961.606H961.606H961.606H961.606H961.607H961.607H961.607H961.607H961.608H961.608H961.608H961.609H961.609H961.609H961.609H961.61H961.61H961.61H961.61H961.611H961.611H961.611H961.611H961.612H961.612H961.612H961.612H961.613H961.613H961.613H961.613H961.614H961.614H961.614H961.615H961.615H961.615H961.615H961.616H961.616H961.616H961.616H961.617H961.617H961.617H961.617H961.618H961.618H961.618H961.618H961.619H961.619H961.619H961.619H961.62H961.62H961.62H961.62H961.621H961.621H961.621H961.621H961.622H961.622H961.622H961.622H961.623H961.623H961.623H961.623H961.623H961.624H961.624H961.624H961.624H961.625H961.625H961.625H961.625H961.626H961.626H961.626H961.626H961.627H961.627H961.627H961.627H961.628H961.628H961.628H961.628H961.629H961.629H961.629H961.629H961.63H961.63H961.63H961.63H961.63H961.631H961.631H961.631H961.631H961.632H961.632H961.632H961.632H961.633H961.633H961.633H961.633H961.634H961.634H961.634H961.634H961.634H961.635H961.635H961.635H961.635H961.636H961.636H961.636H961.636H961.637H961.637H961.637H961.637H961.637H961.638H961.638H961.638H961.638H961.639H961.639H961.639H961.639H961.64H961.64H961.64H961.64H961.64H961.641H961.641H961.641H961.641H961.642H961.642H961.642H961.642H961.643H961.643H961.643H961.643H961.643H961.644H961.644H961.644H961.644H961.645H961.645H961.645H961.645H961.645H961.646H961.646H961.646H961.646H961.647H961.647H961.647H961.647H961.648H961.648H961.648H961.648H961.648H961.649H961.649H961.649H961.649H961.65H961.65H961.65H961.65H961.65H961.651H961.651H961.651H961.651H961.652H961.652H961.652H961.652H961.653H961.653H961.653H961.653H961.653H961.654H961.654H961.654H961.654H961.655H961.655H961.655H961.655H961.655H961.656H961.656H961.656H961.656H961.657H961.657H961.657H961.657H961.658H961.658H961.658H961.658H961.658H961.659H961.659H961.659H961.659H961.66H961.66H961.66H961.66H961.66H961.661H961.661H961.661H961.661H961.662H961.662H961.662H961.662H961.663H961.663H961.663H961.663H961.663H961.664H961.664H961.664H961.664H961.665H961.665H961.665H961.665H961.666H961.666H961.666H961.666H961.666H961.667H961.667H961.667H961.667H961.668H961.668H961.668H961.668H961.669H961.669H961.669H961.669H961.669H961.67H961.67H961.67H961.67H961.671H961.671H961.671H961.671H961.672H961.672H961.672H961.672H961.673H961.673H961.673H961.673H961.674H961.674H961.674H961.674H961.674H961.675H961.675H961.675H961.675H961.676H961.676H961.676H961.676H961.677H961.677H961.677H961.677H961.678H961.678H961.678H961.678H961.679H961.679H961.679H961.679H961.68H961.68H961.68H961.68H961.68H961.681H961.681H961.681H961.681H961.682H961.682H961.682H961.682H961.683H961.683H961.683H961.683H961.684H961.684H961.684H961.684H961.685H961.685H961.685H961.685H961.686H961.686H961.686H961.686H961.687H961.687H961.687H961.687H961.688H961.688H961.688H961.688H961.689H961.689H961.689H961.689H961.69H961.69H961.69H961.691H961.691H961.691H961.691H961.692H961.692H961.692H961.692H961.693H961.693H961.693H961.693H961.694H961.694H961.694H961.694H961.695H961.695H961.695H961.695H961.696H961.696H961.696H961.697H961.697H961.697H961.697H961.698H961.698H961.698H961.698H961.699H961.699H961.699H961.7H961.7H961.7H961.7H961.701H961.701H961.701H961.701H961.702H961.702H961.702H961.703H961.703H961.703H961.703H961.704H961.704H961.704H961.705H961.705H961.705H961.705H961.706H961.706H961.706H961.706H961.707H961.707H961.707H961.708H961.708H961.708H961.708H961.709H961.709H961.709H961.71H961.71H961.71H961.711H961.711H961.711H961.711H961.712H961.712H961.712H961.713H961.713H961.713H961.713H961.714H961.714H961.714H961.715H961.715H961.715H961.716H961.716H961.716C1023.71 526.736 1068.95 540.049 1101.92 560.259C1134.88 580.469 1155.6 607.596 1168.51 635.28C1193.76 689.413 1189.15 745.662 1187.79 756.368C1163.66 745.234 1119.88 733.947 1075.61 767.373L1075.91 767.772L735.363 756.367ZM961.713 886.87H961.713H961.714H961.713ZM961.713 886.87H961.713M961.713 886.87H961.713M961.713 886.87H961.713M961.713 886.87H961.713M961.713 886.87H961.712M961.713 886.87H961.712M961.712 886.87H961.712M961.712 886.87H961.712M961.712 886.87H961.712M961.712 886.87H961.712M961.712 886.87H961.711M961.712 886.87H961.711M961.711 886.87H961.711M961.711 886.87H961.711M961.711 886.87H961.711M961.711 886.87H961.711M961.711 886.87H961.711M961.711 886.87H961.711M961.711 886.87H961.71M961.711 886.87H961.71M961.71 886.87H961.71M961.71 886.87H961.71M961.71 886.87H961.71M961.71 886.87H961.71M961.71 886.87H961.709M961.71 886.87H961.709M961.709 886.87H961.709M961.709 886.87H961.709M961.709 886.87H961.709M961.709 886.87H961.709M961.709 886.87H961.708M961.709 886.87H961.708M961.708 886.87H961.708M961.708 886.87H961.708M961.708 886.87H961.708M961.708 886.87H961.708M961.708 886.87H961.708M961.708 886.87H961.708M961.708 886.87H961.707M961.708 886.87H961.707M961.707 886.87H961.707M961.707 886.87H961.707M961.707 886.87H961.707M961.707 886.87H961.707M961.707 886.87H961.706M961.707 886.87H961.706M961.706 886.87H961.706M961.706 886.87H961.706M961.706 886.87H961.706M961.706 886.87H961.706M961.706 886.87H961.706M961.706 886.87H961.706M961.706 886.87H961.705M961.706 886.87H961.705M961.705 886.87H961.705M961.705 886.87H961.705M961.705 886.87H961.705M961.705 886.87H961.705M961.705 886.87H961.705M961.705 886.87H961.705M961.705 886.87H961.704M961.705 886.87H961.704M961.704 886.87H961.704M961.704 886.87H961.704M961.704 886.87H961.704M961.704 886.87H961.704M961.704 886.87H961.703M961.704 886.87H961.703M961.703 886.87H961.703M961.703 886.87H961.703M961.703 886.87H961.703M961.703 886.87H961.703M961.703 886.87H961.703M961.703 886.87H961.703M961.703 886.87H961.702M961.703 886.87H961.702M961.702 886.87H961.702M961.702 886.87H961.702M961.702 886.87H961.702M961.702 886.87H961.702M961.702 886.87H961.701M961.702 886.87H961.701M961.701 886.87H961.701M961.701 886.87H961.701M961.701 886.87H961.701M961.701 886.87H961.701M961.701 886.87H961.701M961.701 886.87H961.701M961.701 886.87H961.7M961.701 886.87H961.7M961.7 886.87H961.7M961.7 886.87H961.7M961.7 886.87H961.7M961.7 886.87H961.7M961.7 886.87H961.7M961.7 886.87H961.7M961.7 886.87H961.699M961.7 886.87H961.699M961.699 886.87H961.699M961.699 886.87H961.699M961.699 886.87H961.699M961.699 886.87H961.699M961.699 886.87H961.698M961.699 886.87H961.698M961.698 886.87H961.698M961.698 886.87H961.698M961.698 886.87H961.698M961.698 886.87H961.698M961.698 886.87H961.698M961.698 886.87H961.698M961.698 886.87H961.697M961.698 886.87H961.697M961.697 886.87H961.697M961.697 886.87H961.697M961.697 886.87H961.697M961.697 886.87H961.697M961.697 886.87H961.697M961.697 886.87H961.697M961.697 886.87H961.696M961.697 886.87H961.696M961.696 886.87H961.696M961.696 886.87H961.696M961.696 886.87H961.696M961.696 886.87H961.696M961.696 886.87H961.695M961.696 886.87H961.695M961.695 886.87H961.695M961.695 886.87H961.695M961.695 886.87H961.695M961.695 886.87H961.695M961.695 886.87H961.695M961.695 886.87H961.695M961.695 886.87H961.694M961.695 886.87H961.694M961.694 886.87H961.694M961.694 886.87H961.694M961.694 886.87H961.694M961.694 886.87H961.694M961.694 886.87H961.694M961.694 886.87H961.694M961.694 886.87H961.693M961.694 886.87H961.693M961.693 886.87H961.693M961.693 886.87H961.693M961.693 886.87H961.693M961.693 886.87H961.693M961.693 886.87H961.693M961.693 886.87H961.693M961.693 886.87H961.692M961.693 886.87H961.692M961.692 886.87H961.692M961.692 886.87H961.692M961.692 886.87H961.692M961.692 886.87H961.692M961.692 886.87H961.692M961.692 886.87H961.692M961.692 886.87H961.691M961.692 886.87H961.691M961.691 886.87H961.691M961.691 886.87H961.691M961.691 886.87H961.691M961.691 886.87H961.691M961.691 886.87H961.691M961.691 886.87H961.691M961.691 886.87H961.69M961.691 886.87H961.69M961.69 886.87H961.69M961.69 886.87H961.69M961.69 886.87H961.69M961.69 886.87H961.69M961.69 886.87H961.689M961.69 886.87H961.689M961.689 886.87H961.689M961.689 886.87H961.689M961.689 886.87H961.689M961.689 886.87H961.689M961.689 886.87H961.689M961.689 886.87H961.689M961.689 886.87H961.688M961.689 886.87H961.688M961.688 886.87H961.688M961.688 886.87H961.688M961.688 886.87H961.688M961.688 886.87H961.688M961.688 886.87H961.688M961.688 886.87H961.688M961.688 886.87H961.687M961.688 886.87H961.687M961.687 886.87H961.687M961.687 886.87H961.687M961.687 886.87H961.687M961.687 886.87H961.687M961.687 886.87H961.687M961.687 886.87H961.687M961.687 886.87H961.686M961.687 886.87H961.686M961.686 886.87H961.686M961.686 886.87H961.686M961.686 886.87H961.686M961.686 886.87H961.686M961.686 886.87H961.686M961.686 886.87H961.686M961.686 886.87H961.685M961.686 886.87H961.685M961.685 886.87H961.685M961.685 886.87H961.685M961.685 886.87H961.685M961.685 886.87H961.685M961.685 886.87H961.685M961.685 886.87H961.685M961.685 886.87H961.684M961.685 886.87H961.684M961.684 886.87H961.684M961.684 886.87H961.684M961.684 886.87H961.684M961.684 886.87H961.684M961.684 886.87H961.684M961.684 886.87H961.684M961.684 886.87H961.683M961.684 886.87H961.683M961.683 886.87H961.683M961.683 886.87H961.683M961.683 886.87H961.683M961.683 886.87H961.683M961.683 886.87H961.683M961.683 886.87H961.683M961.683 886.87H961.682M961.683 886.87H961.682M961.682 886.87H961.682M961.682 886.87H961.682M961.682 886.87H961.682M961.682 886.87H961.682M961.682 886.87H961.682M961.682 886.87H961.682M961.682 886.87H961.681M961.682 886.87H961.681M961.681 886.87H961.681M961.681 886.87H961.681M961.681 886.87H961.681M961.681 886.87H961.681M961.681 886.87H961.681M961.681 886.87H961.681M961.681 886.87H961.68M961.681 886.87H961.68M961.68 886.87H961.68M961.68 886.87H961.68M961.68 886.87H961.68M961.68 886.87H961.68M961.68 886.87H961.68M961.68 886.87H961.68M961.68 886.87H961.68M961.68 886.87H961.68M961.68 886.87H961.679M961.68 886.87H961.679M961.679 886.87H961.679M961.679 886.87H961.679M961.679 886.87H961.679M961.679 886.87H961.679M961.679 886.87H961.679M961.679 886.87H961.679M961.679 886.87H961.678M961.679 886.87H961.678M961.678 886.87H961.678M961.678 886.87H961.678M961.678 886.87H961.678M961.678 886.87H961.678M961.678 886.87H961.678M961.678 886.87H961.678M961.678 886.87H961.677M961.678 886.87H961.677M961.677 886.87H961.677M961.677 886.87H961.677M961.677 886.87H961.677M961.677 886.87H961.677M961.677 886.87H961.677M961.677 886.87H961.677M961.677 886.87H961.676M961.677 886.87H961.676M961.676 886.87H961.676M961.676 886.87H961.676M961.676 886.87H961.676M961.676 886.87H961.676M961.676 886.87H961.676M961.676 886.87H961.676M961.676 886.87H961.675M961.676 886.87H961.675M961.675 886.87H961.675M961.675 886.87H961.675M961.675 886.87H961.675M961.675 886.87H961.675M961.675 886.87H961.675M961.675 886.87H961.675M961.675 886.87H961.674M961.675 886.87H961.674M961.674 886.87H961.674M961.674 886.87H961.674M961.674 886.87H961.674M961.674 886.87H961.674M961.674 886.87H961.674M961.674 886.87H961.674M961.674 886.87H961.674M961.674 886.87H961.674M961.674 886.87H961.673M961.674 886.87H961.673M961.673 886.87H961.673M961.673 886.87H961.673M961.673 886.87H961.673M961.673 886.87H961.673M961.673 886.87H961.673M961.673 886.87H961.673M961.673 886.87H961.672M961.673 886.87H961.672M961.672 886.87H961.672M961.672 886.87H961.672M961.672 886.87H961.672M961.672 886.87H961.672M961.672 886.87H961.672M961.672 886.87H961.672M961.672 886.87H961.671M961.672 886.87H961.671M961.671 886.87H961.671M961.671 886.87H961.671M961.671 886.87H961.671M961.671 886.87H961.671M961.671 886.87H961.671M961.671 886.87H961.671M961.671 886.87H961.67M961.671 886.87H961.67M961.67 886.87H961.67M961.67 886.87H961.67M961.67 886.87H961.67M961.67 886.87H961.67M961.67 886.87H961.67M961.67 886.87H961.67M961.67 886.87H961.669M961.67 886.87H961.669M961.669 886.87H961.669M961.669 886.87H961.669M961.669 886.87H961.669M961.669 886.87H961.669M961.669 886.87H961.669M961.669 886.87H961.669M961.669 886.87H961.669M961.669 886.87H961.669M961.669 886.87H961.668M961.669 886.87H961.668M961.668 886.87H961.668M961.668 886.87H961.668M961.668 886.87H961.668M961.668 886.87H961.668M961.668 886.87H961.668M961.668 886.87H961.668M961.668 886.87H961.667M961.668 886.87H961.667M961.667 886.87H961.667M961.667 886.87H961.667M961.667 886.87H961.667M961.667 886.87H961.667M961.667 886.87H961.667M961.667 886.87H961.667M961.667 886.87H961.666M961.667 886.87H961.666M961.666 886.87H961.666M961.666 886.87H961.666M961.666 886.87H961.666M961.666 886.87H961.666M961.666 886.87H961.666M961.666 886.87H961.666M961.666 886.87H961.666M961.666 886.87H961.666M961.666 886.87H961.665M961.666 886.87H961.665M961.665 886.87H961.665M961.665 886.87H961.665M961.665 886.87H961.665M961.665 886.87H961.665M961.665 886.87H961.665M961.665 886.87H961.665M961.665 886.87H961.664M961.665 886.87H961.664M961.664 886.87H961.664M961.664 886.87H961.664M961.664 886.87H961.664M961.664 886.87H961.664M961.664 886.87H961.664M961.664 886.87H961.664M961.664 886.87H961.663M961.664 886.87H961.663M961.663 886.87H961.663M961.663 886.87H961.663M961.663 886.87H961.663M961.663 886.87H961.663M961.663 886.87H961.663M961.663 886.87H961.663M961.663 886.87H961.663M961.663 886.87H961.663M961.663 886.87H961.662M961.663 886.87H961.662M961.662 886.87H961.662M961.662 886.87H961.662M961.662 886.87H961.662M961.662 886.87H961.662M961.662 886.87H961.662M961.662 886.87H961.662M961.662 886.87H961.661M961.662 886.87H961.661M961.661 886.87H961.661M961.661 886.87H961.661M961.661 886.87H961.661M961.661 886.87H961.661M961.661 886.87H961.661M961.661 886.87H961.661M961.661 886.87H961.66M961.661 886.87H961.66M961.66 886.87H961.66M961.66 886.87H961.66M961.66 886.87H961.66M961.66 886.87H961.66M961.66 886.87H961.66M961.66 886.87H961.66M961.66 886.87H961.66M961.66 886.87H961.66M961.66 886.87H961.659M961.66 886.87H961.659M961.659 886.87H961.659M961.659 886.87H961.659M961.659 886.87H961.659M961.659 886.87H961.659M961.659 886.87H961.659M961.659 886.87H961.659M961.659 886.87H961.658M961.659 886.87H961.658M961.658 886.87H961.658M961.658 886.87H961.658M961.658 886.87H961.658M961.658 886.87H961.658M961.658 886.87H961.658M961.658 886.87H961.658M961.658 886.87H961.657M961.658 886.87H961.657M961.657 886.87H961.657M961.657 886.87H961.657M961.657 886.87H961.657M961.657 886.87H961.657M961.657 886.87H961.657M961.657 886.87H961.657M961.657 886.87H961.656M961.657 886.87H961.656M961.656 886.87H961.656M961.656 886.87H961.656M961.656 886.87H961.656M961.656 886.87H961.656M961.656 886.87H961.656M961.656 886.87H961.656M961.656 886.87H961.655M961.656 886.87H961.655M961.655 886.87H961.655M961.655 886.87H961.655M961.655 886.87H961.655M961.655 886.87H961.655M961.655 886.87H961.655M961.655 886.87H961.655M961.655 886.87H961.654M961.655 886.87H961.654M961.654 886.87H961.654M961.654 886.87H961.654M961.654 886.87H961.654M961.654 886.87H961.654M961.654 886.87H961.654M961.654 886.87H961.654M961.654 886.87H961.653M961.654 886.87H961.653M961.653 886.87H961.653M961.653 886.87H961.653M961.653 886.87H961.653M961.653 886.87H961.653M961.653 886.87H961.653M961.653 886.87H961.653M961.653 886.87H961.652M961.653 886.87H961.652M961.652 886.87H961.652M961.652 886.87H961.652M961.652 886.87H961.652M961.652 886.87H961.652M961.652 886.87H961.651M961.652 886.87H961.651M961.651 886.87H961.651M961.651 886.87H961.651M961.651 886.87H961.651M961.651 886.87H961.651M961.651 886.87H961.651M961.651 886.87H961.651M961.651 886.87H961.65M961.651 886.87H961.65M961.65 886.87H961.65M961.65 886.87H961.65M961.65 886.87H961.65M961.65 886.87H961.65M961.65 886.87H961.65M961.65 886.87H961.65M961.65 886.87H961.649M961.65 886.87H961.649M961.649 886.87H961.649M961.649 886.87H961.649M961.649 886.87H961.649M961.649 886.87H961.649M961.649 886.87H961.649M961.649 886.87H961.649M961.649 886.87H961.648M961.649 886.87H961.648M961.648 886.87H961.648M961.648 886.87H961.648M961.648 886.87H961.648M961.648 886.87H961.648M961.648 886.87H961.648M961.648 886.87H961.648M961.648 886.87H961.647M961.648 886.87H961.647M961.647 886.87H961.647M961.647 886.87H961.647M961.647 886.87H961.647M961.647 886.87H961.647M961.647 886.87H961.647M961.647 886.87H961.647M961.647 886.87H961.646M961.647 886.87H961.646M961.646 886.87H961.646M961.646 886.87H961.646M961.646 886.87H961.646M961.646 886.87H961.646M961.646 886.87H961.645M961.646 886.87H961.645M961.645 886.87H961.645M961.645 886.87H961.645M961.645 886.87H961.645M961.645 886.87H961.645M961.645 886.87H961.645M961.645 886.87H961.645M961.645 886.87H961.645M961.645 886.87H961.645M961.645 886.87H961.644M961.645 886.87H961.644M961.644 886.87H961.644M961.644 886.87H961.644M961.644 886.87H961.644M961.644 886.87H961.644M961.644 886.87H961.644M961.644 886.87H961.644M961.644 886.87H961.643M961.644 886.87H961.643M961.643 886.87H961.643M961.643 886.87H961.643M961.643 886.87H961.643M961.643 886.87H961.643M961.643 886.87H961.643M961.643 886.87H961.643M961.643 886.87H961.643M961.643 886.87H961.643M961.643 886.87H961.642M961.643 886.87H961.642M961.642 886.87H961.642M961.642 886.87H961.642M961.642 886.87H961.642M961.642 886.87H961.642M961.642 886.87H961.642M961.642 886.87H961.642M961.642 886.87H961.641M961.642 886.87H961.641M961.641 886.87H961.641M961.641 886.87H961.641M961.641 886.87H961.641M961.641 886.87H961.641M961.641 886.87H961.641M961.641 886.87H961.641M961.641 886.87H961.64M961.641 886.87H961.64M961.64 886.87H961.64M961.64 886.87H961.64M961.64 886.87H961.64M961.64 886.87H961.64M961.64 886.87H961.64M961.64 886.87H961.64M961.64 886.87H961.64M961.64 886.87H961.64M961.64 886.87H961.639M961.64 886.87H961.639M961.639 886.87H961.639M961.639 886.87H961.639M961.639 886.87H961.639M961.639 886.87H961.639M961.639 886.87H961.639M961.639 886.87H961.639M961.639 886.87H961.638M961.639 886.87H961.638M961.638 886.87H961.638M961.638 886.87H961.638M961.638 886.87H961.638M961.638 886.87H961.638M961.638 886.87H961.638M961.638 886.87H961.638M961.638 886.87H961.637M961.638 886.87H961.637M961.637 886.87H961.637M961.637 886.87H961.637M961.637 886.87H961.637M961.637 886.87H961.637M961.637 886.87H961.637M961.637 886.87H961.637M961.637 886.87H961.637M961.637 886.87H961.637M961.637 886.87H961.636M961.637 886.87H961.636M961.636 886.87H961.636M961.636 886.87H961.636M961.636 886.87H961.636M961.636 886.87H961.636M961.636 886.87H961.636M961.636 886.87H961.636M961.636 886.87H961.635M961.636 886.87H961.635M961.635 886.87H961.635M961.635 886.87H961.635M961.635 886.87H961.635M961.635 886.87H961.635M961.635 886.87H961.635M961.635 886.87H961.635M961.635 886.87H961.634M961.635 886.87H961.634M961.634 886.87H961.634M961.634 886.87H961.634M961.634 886.87H961.634M961.634 886.87H961.634M961.634 886.87H961.634M961.634 886.87H961.634M961.634 886.87H961.634M961.634 886.87H961.634M961.634 886.87H961.633M961.634 886.87H961.633M961.633 886.87H961.633M961.633 886.87H961.633M961.633 886.87H961.633M961.633 886.87H961.633M961.633 886.87H961.633M961.633 886.87H961.633M961.633 886.87H961.632M961.633 886.87H961.632M961.632 886.87H961.632M961.632 886.87H961.632M961.632 886.87H961.632M961.632 886.87H961.632M961.632 886.87H961.632M961.632 886.87H961.632M961.632 886.87H961.631M961.632 886.87H961.631M961.631 886.87H961.631M961.631 886.87H961.631M961.631 886.87H961.631M961.631 886.87H961.631M961.631 886.87H961.631M961.631 886.87H961.631M961.631 886.87H961.63M961.631 886.87H961.63M961.63 886.87H961.63M961.63 886.87H961.63M961.63 886.87H961.63M961.63 886.87H961.63M961.63 886.87H961.63M961.63 886.87H961.63M961.63 886.87H961.63M961.63 886.87H961.63M961.63 886.87H961.629M961.63 886.87H961.629M961.629 886.87H961.629M961.629 886.87H961.629M961.629 886.87H961.629M961.629 886.87H961.629M961.629 886.87H961.629M961.629 886.87H961.629M961.629 886.87H961.628M961.629 886.87H961.628M961.628 886.87H961.628M961.628 886.87H961.628M961.628 886.87H961.628M961.628 886.87H961.628M961.628 886.87H961.628M961.628 886.87H961.628M961.628 886.87H961.627M961.628 886.87H961.627M961.627 886.87H961.627M961.627 886.87H961.627M961.627 886.87H961.627M961.627 886.87H961.627M961.627 886.87H961.627M961.627 886.87H961.627M961.627 886.87H961.626M961.627 886.87H961.626M961.626 886.87H961.626M961.626 886.87H961.626M961.626 886.87H961.626M961.626 886.87H961.626M961.626 886.87H961.626M961.626 886.87H961.626M961.626 886.87H961.625M961.626 886.87H961.625M961.625 886.87H961.625M961.625 886.87H961.625M961.625 886.87H961.625M961.625 886.87H961.625M961.625 886.87H961.625M961.625 886.87H961.625M961.625 886.87H961.624M961.625 886.87H961.624M961.624 886.87H961.624M961.624 886.87H961.624M961.624 886.87H961.624M961.624 886.87H961.624M961.624 886.87H961.624M961.624 886.87H961.624M961.624 886.87H961.623M961.624 886.87H961.623M961.623 886.87H961.623M961.623 886.87H961.623M961.623 886.87H961.623M961.623 886.87H961.623M961.623 886.87H961.623M961.623 886.87H961.623M961.623 886.87H961.623M961.623 886.87H961.623M961.623 886.87H961.622M961.623 886.87H961.622M961.622 886.87H961.622M961.622 886.87H961.622M961.622 886.87H961.622M961.622 886.87H961.622M961.622 886.87H961.622M961.622 886.87H961.622M961.622 886.87H961.621M961.622 886.87H961.621M961.621 886.87H961.621M961.621 886.87H961.621M961.621 886.87H961.621M961.621 886.87H961.621M961.621 886.87H961.621M961.621 886.87H961.621M961.621 886.87H961.62M961.621 886.87H961.62M961.62 886.87H961.62M961.62 886.87H961.62M961.62 886.87H961.62M961.62 886.87H961.62M961.62 886.87H961.62M961.62 886.87H961.62M961.62 886.87H961.619M961.62 886.87H961.619M961.619 886.87H961.619M961.619 886.87H961.619M961.619 886.87H961.619M961.619 886.87H961.619M961.619 886.87H961.619M961.619 886.87H961.619M961.619 886.87H961.618M961.619 886.87H961.618M961.618 886.87H961.618M961.618 886.87H961.618M961.618 886.87H961.618M961.618 886.87H961.618M961.618 886.87H961.618M961.618 886.87H961.618M961.618 886.87H961.617M961.618 886.87H961.617M961.617 886.87H961.617M961.617 886.87H961.617M961.617 886.87H961.617M961.617 886.87H961.617M961.617 886.87H961.617M961.617 886.87H961.617M961.617 886.87H961.616M961.617 886.87H961.616M961.616 886.87H961.616M961.616 886.87H961.616M961.616 886.87H961.616M961.616 886.87H961.616M961.616 886.87H961.616M961.616 886.87H961.616M961.616 886.87H961.615M961.616 886.87H961.615M961.615 886.87H961.615M961.615 886.87H961.615M961.615 886.87H961.615M961.615 886.87H961.615M961.615 886.87H961.615M961.615 886.87H961.615M961.615 886.87H961.614M961.615 886.87H961.614M961.614 886.87H961.614M961.614 886.87H961.614M961.614 886.87H961.614M961.614 886.87H961.614M961.614 886.87H961.613M961.614 886.87H961.613M961.613 886.87H961.613M961.613 886.87H961.613M961.613 886.87H961.613M961.613 886.87H961.613M961.613 886.87H961.613M961.613 886.87H961.613M961.613 886.87H961.612M961.613 886.87H961.612M961.612 886.87H961.612M961.612 886.87H961.612M961.612 886.87H961.612M961.612 886.87H961.612M961.612 886.87H961.612M961.612 886.87H961.612M961.612 886.87H961.611M961.612 886.87H961.611M961.611 886.87H961.611M961.611 886.87H961.611M961.611 886.87H961.611M961.611 886.87H961.611M961.611 886.87H961.611M961.611 886.87H961.611M961.611 886.87H961.61M961.611 886.87H961.61M961.61 886.87H961.61M961.61 886.87H961.61M961.61 886.87H961.61M961.61 886.87H961.61M961.61 886.87H961.61M961.61 886.87H961.61M961.61 886.87H961.609M961.61 886.87H961.609M961.609 886.87H961.609M961.609 886.87H961.609M961.609 886.87H961.609M961.609 886.87H961.609M961.609 886.87H961.609M961.609 886.87H961.609M961.609 886.87H961.608M961.609 886.87H961.608M961.608 886.87H961.608M961.608 886.87H961.608M961.608 886.87H961.608M961.608 886.87H961.608M961.608 886.87H961.607M961.608 886.87H961.607M961.607 886.87H961.607M961.607 886.87H961.607M961.607 886.87H961.607M961.607 886.87H961.607M961.607 886.87H961.607M961.607 886.87H961.607M961.607 886.87H961.606M961.607 886.87H961.606M961.606 886.87H961.606M961.606 886.87H961.606M961.606 886.87H961.606M961.606 886.87H961.606M961.606 886.87H961.606M961.606 886.87H961.606M961.606 886.87H961.605M961.606 886.87H961.605M961.605 886.87H961.605M961.605 886.87H961.605M961.605 886.87H961.605M961.605 886.87H961.605M961.605 886.87H961.605M961.605 886.87H961.605M961.605 886.87H961.604M961.605 886.87H961.604M961.604 886.87H961.604M961.604 886.87H961.604M961.604 886.87H961.604M961.604 886.87H961.604M961.604 886.87H961.603M961.604 886.87H961.603M961.603 886.87H961.603M961.603 886.87H961.603M961.603 886.87H961.603M961.603 886.87H961.603M961.603 886.87H961.603M961.603 886.87H961.603M961.603 886.87H961.602M961.603 886.87H961.602M961.602 886.87H961.602M961.602 886.87H961.602M961.602 886.87H961.602M961.602 886.87H961.602M961.602 886.87H961.602M961.602 886.87H961.602M961.602 886.87H961.601M961.602 886.87H961.601M961.601 886.87H961.601M961.601 886.87H961.601M961.601 886.87H961.601M961.601 886.87H961.601M961.601 886.87H961.6M961.601 886.87H961.6M961.6 886.87H961.6M961.6 886.87H961.6M961.6 886.87H961.6M961.6 886.87H961.6M961.6 886.87H961.6H961.6ZM962.774 722.741L962.761 722.741L962.749 722.742L962.775 723.241L962.774 722.741Z" fill="white" stroke="black"/>
<path d="M962.747 723.241C956.782 723.553 946.143 724.178 947.382 732.397C948.312 739.342 956.782 746.911 961.895 746.911C970.288 746.911 988.132 723.189 962.747 723.241Z" fill="#333333"/>
<path d="M847.238 767.772C802.795 734.218 758.868 745.923 734.955 757.107C745.182 830.432 809.225 867.055 885.277 880.762C890.7 851.864 891.939 801.508 847.238 767.772Z" fill="white"/>
<path d="M1188.19 757.107C1164.28 745.923 1120.35 734.218 1075.91 767.772C1031.21 801.534 1032.45 851.864 1037.87 880.762C1113.92 867.029 1177.99 830.406 1188.19 757.107Z" fill="white"/>
<path d="M795.308 548.345C779.814 555.264 779.039 576.827 793.062 585.826L823.276 562.807C817.284 546.134 803.03 545.015 795.308 548.345Z" fill="#FFC1C2"/>
<path d="M777.644 511.019C733.356 530.787 731.135 592.433 771.24 618.131L857.595 552.324C840.474 504.724 799.724 501.551 777.644 511.019ZM793.061 585.8C779.039 576.8 779.813 555.237 795.308 548.318C803.029 545.015 817.284 546.107 823.275 562.754L793.061 585.8Z" fill="#333333"/>
<path d="M1128.05 548.345C1120.33 545.041 1106.07 546.134 1100.08 562.781L1130.3 585.8C1144.32 576.827 1143.54 555.264 1128.05 548.345Z" fill="#FFC1C2"/>
<path d="M1145.71 511.019C1123.63 501.551 1082.88 504.725 1065.79 552.298L1152.12 618.106C1192.22 592.433 1189.98 530.814 1145.71 511.019ZM1130.3 585.8L1100.08 562.781C1106.07 546.134 1120.33 545.015 1128.05 548.345C1143.54 555.264 1144.32 576.827 1130.3 585.8Z" fill="#333333"/>
<path d="M1187.65 757.404C1177.35 829.971 1113.91 866.415 1038.27 880.182C1032.94 851.269 1031.99 801.568 1076.21 768.171C1120.24 734.931 1163.74 746.306 1187.65 757.404Z" fill="#FFDBDB" stroke="black"/>
<path d="M846.937 768.171L846.937 768.171C891.155 801.542 890.209 851.269 884.876 880.182C809.233 866.441 745.822 829.997 735.502 757.404C759.406 746.306 802.91 734.931 846.937 768.171Z" fill="#FFDBDB" stroke="black"/>
<path d="M927.965 660.399C943.201 681.884 927.474 719.496 892.844 744.388C858.214 769.28 817.8 772.063 802.564 750.578C787.353 729.094 803.054 691.482 837.71 666.59C872.34 641.697 912.754 638.914 927.965 660.399Z" fill="#333333"/>
<path d="M995.185 660.399C979.949 681.884 995.676 719.496 1030.31 744.388C1064.94 769.28 1105.35 772.063 1120.59 750.578C1135.82 729.094 1120.1 691.482 1085.47 666.59C1050.81 641.697 1010.4 638.914 995.185 660.399Z" fill="#333333"/>
<path d="M1037.51 689.193C1029.32 689.193 1022.69 695.878 1022.69 704.15C1022.69 712.395 1029.32 719.106 1037.51 719.106C1045.7 719.106 1052.36 712.421 1052.36 704.15C1052.36 695.904 1045.7 689.193 1037.51 689.193ZM1037.51 708.103C1035.34 708.103 1033.58 706.334 1033.58 704.15C1033.58 701.965 1035.34 700.196 1037.51 700.196C1039.68 700.196 1041.44 701.965 1041.44 704.15C1041.44 706.334 1039.68 708.103 1037.51 708.103Z" fill="white"/>
<path d="M885.639 689.193C877.453 689.193 870.79 695.878 870.79 704.15C870.79 712.395 877.427 719.106 885.639 719.106C893.825 719.106 900.462 712.421 900.462 704.15C900.488 695.904 893.851 689.193 885.639 689.193ZM885.639 708.103C883.47 708.103 881.714 706.334 881.714 704.15C881.714 701.965 883.47 700.196 885.639 700.196C887.808 700.196 889.564 701.965 889.564 704.15C889.564 706.334 887.808 708.103 885.639 708.103Z" fill="white"/>
<path d="M1138.69 519.473C1155.91 524.233 1168.85 541.348 1168.82 558.697C1168.82 568.269 1159.89 573.029 1148.53 546.94C1140.03 527.432 1117.62 527.77 1120.4 522.438C1122.63 518.146 1132.31 517.704 1138.69 519.473Z" fill="#4D4D4D"/>
<path d="M784.667 519.473C767.443 524.233 754.505 541.348 754.505 558.697C754.505 568.269 763.44 573.029 774.803 546.94C783.299 527.432 805.714 527.77 802.925 522.438C800.704 518.146 791.02 517.704 784.667 519.473Z" fill="#4D4D4D"/>
<path d="M991.608 825.468C982.505 836.516 959.548 838.085 940.343 828.971C921.138 819.857 912.939 803.521 922.042 792.473C931.15 781.435 954.103 779.855 973.312 788.98C992.517 798.094 1000.72 814.43 991.608 825.468Z" fill="#333333"/>
<path d="M920.267 810.759C924.269 824.987 946.093 834.776 966.622 834.776C979.328 834.776 983.894 833.595 991.124 826.103C972.505 810.627 940.177 801.942 920.267 810.759Z" fill="#FF7979"/>
<path d="M958.197 517C973.18 373.094 1118.73 403.195 1229.8 400.591C1319.57 398.487 1367.51 387.574 1361.27 277.121C1359.09 238.175 1389.74 100.76 1208.66 119.091C1027.59 137.423 836.678 113.492 721.371 117.451C606.064 121.409 564.361 148.907 562.176 267.99C559.991 387.074 575.786 409.079 744.563 398.523C964.221 384.792 958.197 517 958.197 517Z" fill="#333333"/>
<path d="M777.407 197.896V253H760.031V197.896H740.159V183.784H797.183V197.896H777.407ZM830.5 253V221.032C830.5 218.024 830.052 215.784 829.156 214.312C828.26 212.84 826.692 212.104 824.452 212.104C822.916 212.104 821.38 212.456 819.844 213.16C818.372 213.8 816.9 214.632 815.428 215.656V253H798.052V201.448H812.452L814.18 206.152C816.612 203.72 818.916 202.088 821.092 201.256C823.268 200.36 825.54 199.912 827.908 199.912C831.428 199.912 834.436 200.456 836.932 201.544C839.428 202.568 841.476 204.04 843.076 205.96C844.74 207.816 845.956 210.024 846.724 212.584C847.492 215.144 847.876 217.96 847.876 221.032V253H830.5ZM892.057 253L890.425 249.064C888.313 250.856 886.105 252.2 883.801 253.096C881.497 253.992 878.873 254.44 875.929 254.44C868.953 254.44 863.705 252.872 860.185 249.736C856.729 246.6 855.001 242.216 855.001 236.584C855.001 233.384 855.577 230.76 856.729 228.712C857.881 226.6 859.417 224.936 861.337 223.72C863.257 222.504 865.433 221.672 867.865 221.224C870.361 220.712 872.921 220.456 875.545 220.456C879.321 220.456 883.161 220.808 887.065 221.512V216.904C887.065 215.368 886.521 214.152 885.433 213.256C884.409 212.36 882.553 211.912 879.865 211.912C878.201 211.912 876.441 212.168 874.585 212.68C872.729 213.192 871.097 214.28 869.689 215.944L858.745 209.512C861.177 206.248 864.185 203.848 867.769 202.312C871.353 200.776 875.737 200.008 880.921 200.008C888.665 200.008 894.521 201.544 898.489 204.616C902.457 207.624 904.441 211.72 904.441 216.904V253H892.057ZM887.065 230.248C886.105 230.12 885.049 230.024 883.897 229.96C882.809 229.832 881.721 229.768 880.633 229.768C879.609 229.768 878.585 229.864 877.561 230.056C876.601 230.184 875.705 230.472 874.873 230.92C874.105 231.368 873.465 232.008 872.953 232.84C872.505 233.672 872.281 234.728 872.281 236.008C872.281 238.44 872.889 240.168 874.105 241.192C875.321 242.152 876.889 242.632 878.809 242.632C881.625 242.632 884.377 241.864 887.065 240.328V230.248ZM948.001 253L934.753 233.608C934.497 233.224 934.305 232.84 934.177 232.456C934.113 232.008 934.081 231.368 934.081 230.536L931.489 232.648V253H914.209V178.216H931.489V215.272L945.985 201.448H969.025L945.121 221.416L969.121 253H948.001ZM1018.59 236.392C1018.59 239.464 1017.98 242.12 1016.76 244.36C1015.61 246.6 1013.98 248.488 1011.87 250.024C1009.75 251.496 1007.23 252.584 1004.28 253.288C1001.34 254.056 998.105 254.44 994.585 254.44C988.057 254.44 982.873 253.288 979.033 250.984C975.193 248.68 972.377 245.704 970.585 242.056L982.777 237.448C984.121 239.496 985.721 240.936 987.577 241.768C989.497 242.6 991.833 243.016 994.585 243.016C995.481 243.016 996.377 242.952 997.273 242.824C998.169 242.696 998.969 242.472 999.673 242.152C1000.38 241.832 1000.95 241.352 1001.4 240.712C1001.85 240.072 1002.07 239.272 1002.07 238.312C1002.07 237.288 1001.85 236.424 1001.4 235.72C1000.95 234.952 999.897 234.408 998.233 234.088L985.945 232.072C983.961 231.752 982.105 231.208 980.377 230.44C978.649 229.672 977.113 228.648 975.769 227.368C974.489 226.024 973.465 224.392 972.697 222.472C971.993 220.552 971.641 218.312 971.641 215.752C971.641 212.872 972.249 210.44 973.465 208.456C974.745 206.408 976.441 204.776 978.553 203.56C980.665 202.28 983.129 201.352 985.945 200.776C988.761 200.2 991.737 199.912 994.873 199.912C1000.31 199.912 1004.86 200.808 1008.51 202.6C1012.15 204.392 1015.1 206.92 1017.34 210.184L1006.01 216.136C1004.73 214.664 1003.19 213.512 1001.4 212.68C999.609 211.848 997.433 211.432 994.873 211.432C993.145 211.432 991.577 211.688 990.169 212.2C988.825 212.712 988.153 213.8 988.153 215.464C988.153 217.448 989.209 218.632 991.321 219.016L1002.17 220.84C1004.67 221.224 1006.91 221.8 1008.89 222.568C1010.94 223.272 1012.67 224.232 1014.07 225.448C1015.55 226.664 1016.67 228.168 1017.43 229.96C1018.2 231.752 1018.59 233.896 1018.59 236.392ZM1087.06 192.808C1085.39 192.296 1083.66 191.848 1081.87 191.464C1080.14 191.08 1078.45 190.888 1076.78 190.888C1074.54 190.888 1072.78 191.432 1071.5 192.52C1070.29 193.544 1069.68 195.528 1069.68 198.472V201.448H1085.23L1082.06 214.024H1069.68V253H1052.3V217.576C1052.3 217 1052.37 216.456 1052.5 215.944C1052.69 215.368 1053.1 214.728 1053.74 214.024H1045.2V201.448H1052.3V198.472C1052.3 194.248 1052.88 190.824 1054.03 188.2C1055.18 185.576 1056.75 183.528 1058.74 182.056C1060.72 180.52 1062.99 179.496 1065.55 178.984C1068.18 178.472 1070.93 178.216 1073.81 178.216C1077.07 178.216 1079.98 178.472 1082.54 178.984C1085.1 179.496 1087.73 180.104 1090.42 180.808L1087.06 192.808ZM1142.59 227.08C1142.59 231.112 1142.08 234.792 1141.05 238.12C1140.09 241.448 1138.52 244.328 1136.35 246.76C1134.24 249.192 1131.45 251.08 1128 252.424C1124.54 253.768 1120.32 254.44 1115.32 254.44C1110.33 254.44 1106.11 253.768 1102.65 252.424C1099.26 251.08 1096.48 249.224 1094.3 246.856C1092.12 244.424 1090.56 241.544 1089.6 238.216C1088.64 234.888 1088.16 231.208 1088.16 227.176C1088.16 223.144 1088.64 219.464 1089.6 216.136C1090.56 212.808 1092.12 209.96 1094.3 207.592C1096.48 205.16 1099.26 203.272 1102.65 201.928C1106.11 200.584 1110.33 199.912 1115.32 199.912C1120.32 199.912 1124.54 200.584 1128 201.928C1131.45 203.208 1134.24 205.064 1136.35 207.496C1138.52 209.864 1140.09 212.712 1141.05 216.04C1142.08 219.368 1142.59 223.048 1142.59 227.08ZM1125.02 227.08C1125.02 224.136 1124.83 221.736 1124.44 219.88C1124.06 218.024 1123.45 216.552 1122.62 215.464C1121.79 214.376 1120.76 213.64 1119.55 213.256C1118.33 212.808 1116.92 212.584 1115.32 212.584C1113.66 212.584 1112.22 212.808 1111 213.256C1109.85 213.64 1108.86 214.376 1108.03 215.464C1107.2 216.552 1106.59 218.056 1106.2 219.976C1105.82 221.832 1105.63 224.232 1105.63 227.176C1105.63 230.12 1105.82 232.552 1106.2 234.472C1106.59 236.328 1107.2 237.832 1108.03 238.984C1108.86 240.072 1109.85 240.84 1111 241.288C1112.22 241.672 1113.66 241.864 1115.32 241.864C1116.92 241.864 1118.33 241.64 1119.55 241.192C1120.76 240.744 1121.79 239.976 1122.62 238.888C1123.45 237.736 1124.06 236.232 1124.44 234.376C1124.83 232.456 1125.02 230.024 1125.02 227.08ZM1184.55 214.024C1183.52 213.896 1182.47 213.8 1181.38 213.736C1180.35 213.608 1179.27 213.544 1178.11 213.544C1176.26 213.544 1174.4 213.704 1172.55 214.024C1170.75 214.344 1169.09 214.952 1167.55 215.848V253H1150.18V201.448H1164.67L1166.31 205.96C1168.35 203.4 1170.43 201.768 1172.55 201.064C1174.66 200.296 1176.8 199.912 1178.98 199.912C1179.87 199.912 1180.74 199.976 1181.57 200.104C1182.47 200.232 1183.46 200.392 1184.55 200.584V214.024ZM841.373 334.024C840.349 333.896 839.293 333.8 838.205 333.736C837.181 333.608 836.093 333.544 834.941 333.544C833.085 333.544 831.229 333.704 829.373 334.024C827.581 334.344 825.917 334.952 824.381 335.848V373H807.005V321.448H821.501L823.133 325.96C825.181 323.4 827.261 321.768 829.373 321.064C831.485 320.296 833.629 319.912 835.805 319.912C836.701 319.912 837.565 319.976 838.397 320.104C839.293 320.232 840.285 320.392 841.373 320.584V334.024ZM861.45 351.4C861.45 354.92 862.25 357.608 863.85 359.464C865.514 361.32 868.17 362.248 871.818 362.248C876.618 362.248 880.202 360.392 882.57 356.68L895.914 361.096C893.674 365.32 890.634 368.616 886.794 370.984C882.954 373.288 877.962 374.44 871.818 374.44C853.45 374.44 844.266 365.352 844.266 347.176C844.266 338.216 846.57 331.464 851.178 326.92C855.85 322.312 862.602 320.008 871.434 320.008C876.234 320.008 880.266 320.744 883.53 322.216C886.794 323.624 889.418 325.608 891.402 328.168C893.45 330.728 894.922 333.768 895.818 337.288C896.714 340.744 897.162 344.488 897.162 348.52V351.4H861.45ZM880.458 341.224C880.266 338.152 879.37 335.848 877.77 334.312C876.17 332.712 874.09 331.912 871.53 331.912C868.842 331.912 866.634 332.616 864.906 334.024C863.242 335.368 862.154 337.768 861.642 341.224H880.458ZM935.181 373H918.669L898.605 321.448H916.461L925.485 350.248C925.933 351.72 926.253 353.224 926.445 354.76C926.637 356.232 926.829 357.704 927.021 359.176C927.277 357.512 927.469 356.008 927.597 354.664C927.789 353.32 928.141 351.848 928.653 350.248L937.677 321.448H955.437L935.181 373ZM961.505 373V321.448H978.881V373H961.505ZM962.273 313.672C961.633 313.672 961.313 313.352 961.313 312.712V299.176C961.313 298.536 961.633 298.216 962.273 298.216H978.209C978.849 298.216 979.169 298.536 979.169 299.176V312.712C979.169 313.352 978.849 313.672 978.209 313.672H962.273ZM1003.67 351.4C1003.67 354.92 1004.47 357.608 1006.07 359.464C1007.73 361.32 1010.39 362.248 1014.04 362.248C1018.84 362.248 1022.42 360.392 1024.79 356.68L1038.13 361.096C1035.89 365.32 1032.85 368.616 1029.01 370.984C1025.17 373.288 1020.18 374.44 1014.04 374.44C995.669 374.44 986.485 365.352 986.485 347.176C986.485 338.216 988.789 331.464 993.397 326.92C998.069 322.312 1004.82 320.008 1013.65 320.008C1018.45 320.008 1022.48 320.744 1025.75 322.216C1029.01 323.624 1031.64 325.608 1033.62 328.168C1035.67 330.728 1037.14 333.768 1038.04 337.288C1038.93 340.744 1039.38 344.488 1039.38 348.52V351.4H1003.67ZM1022.68 341.224C1022.48 338.152 1021.59 335.848 1019.99 334.312C1018.39 332.712 1016.31 331.912 1013.75 331.912C1011.06 331.912 1008.85 332.616 1007.12 334.024C1005.46 335.368 1004.37 337.768 1003.86 341.224H1022.68ZM1104.18 373H1089.21L1082.58 350.344C1082.33 349.512 1082.1 348.808 1081.91 348.232C1081.78 347.592 1081.66 346.952 1081.53 346.312C1081.4 345.672 1081.27 344.968 1081.14 344.2C1081.02 343.368 1080.86 342.376 1080.66 341.224C1080.47 342.376 1080.31 343.368 1080.18 344.2C1080.06 344.968 1079.93 345.672 1079.8 346.312C1079.67 346.952 1079.51 347.592 1079.32 348.232C1079.19 348.872 1079 349.576 1078.74 350.344L1072.12 373H1057.14L1040.92 321.448H1058.1L1063.86 345.832C1064.06 346.664 1064.28 347.784 1064.54 349.192C1064.79 350.6 1065.02 352.488 1065.21 354.856C1065.72 352.232 1066.1 350.248 1066.36 348.904C1066.68 347.56 1066.94 346.536 1067.13 345.832L1073.75 321.448H1087.58L1094.3 345.832C1094.36 346.216 1094.46 346.6 1094.58 346.984C1094.78 347.368 1094.94 347.912 1095.06 348.616C1095.26 349.256 1095.42 350.088 1095.54 351.112C1095.74 352.072 1095.93 353.32 1096.12 354.856C1096.25 353.384 1096.38 352.168 1096.5 351.208C1096.7 350.248 1096.86 349.448 1096.98 348.808C1097.11 348.168 1097.21 347.624 1097.27 347.176C1097.4 346.728 1097.53 346.28 1097.66 345.832L1103.32 321.448H1120.6L1104.18 373Z" fill="white"/>
</g>
<defs>
<clipPath id="clip0_115_390">
<rect width="1920" height="1080" fill="white"/>
</clipPath>
</defs>
</svg>
